<svg xmlns="http://www.w3.org/2000/svg" width="33.766" height="22.402" viewBox="0 0 33.766 22.402">
  <path id="chicken-leg" d="M31.4,16.921h-5.05c.3-.1.606-.21.9-.329,1.933-.772,2.913-1.68,2.913-2.7,0-1.565-1.268-2.091-2.387-2.555a7.574,7.574,0,0,1-1.381-.684.48.48,0,1,0-.544.791,8.287,8.287,0,0,0,1.557.779c1.146.475,1.795.787,1.795,1.668,0,.562-.841,1.221-2.309,1.808a23.9,23.9,0,0,1-4.634,1.22H20.686a6.971,6.971,0,0,0,2.328-3.512A9.652,9.652,0,0,1,25.762,9a1.451,1.451,0,0,0,.467-1.248l2.737-2.036a.222.222,0,0,1,.255,0,1.961,1.961,0,0,0,1.764.315,1.632,1.632,0,0,0,.976-.893,1.766,1.766,0,0,0-.006-1.412,1.8,1.8,0,0,0-1.443-1.079,1.8,1.8,0,0,0-.6-1.7A1.766,1.766,0,0,0,28.569.51a1.633,1.633,0,0,0-1.144.664A1.961,1.961,0,0,0,27.2,2.951a.221.221,0,0,1-.08.241l-2.764,2a1.451,1.451,0,0,0-1.331.072,9.652,9.652,0,0,1-5.033,1.3,6.916,6.916,0,0,0-4.2,1.276,6.136,6.136,0,0,0-2.434,3.846,5.522,5.522,0,0,0,.965,4.3,5.43,5.43,0,0,0,.866.927H7.108c-3.693-.744-5.489-2.586-5.489-5.629A9.555,9.555,0,0,1,4.459,4.743a10.18,10.18,0,0,1,7.334-3.095,15.037,15.037,0,0,1,9.081,3.187.48.48,0,0,0,.592-.756A16.015,16.015,0,0,0,11.793.689,11.132,11.132,0,0,0,3.772,4.072,10.521,10.521,0,0,0,.66,11.292a5.87,5.87,0,0,0,3.418,5.629H1.37a1.37,1.37,0,0,0,0,2.74H3.11a.066.066,0,0,1,.061.041l.3.746A2.326,2.326,0,0,0,5.637,21.9H27.128a2.326,2.326,0,0,0,2.161-1.452l.3-.746a.066.066,0,0,1,.061-.041H31.4a1.37,1.37,0,0,0,0-2.74ZM27.682,3.969a1.184,1.184,0,0,0,.436-1.29,1.076,1.076,0,0,1,.08-.936.673.673,0,0,1,.477-.279.8.8,0,0,1,.61.2.831.831,0,0,1,.259.886.8.8,0,0,0,.76,1.036h0a.832.832,0,0,1,.768.513.8.8,0,0,1,.008.642.674.674,0,0,1-.409.372,1.077,1.077,0,0,1-.917-.2,1.184,1.184,0,0,0-1.362.031L25.8,6.871l-.737-1ZM13.1,15.426a4.57,4.57,0,0,1-.795-3.564,5.18,5.18,0,0,1,2.057-3.245A5.992,5.992,0,0,1,18,7.527,10.563,10.563,0,0,0,23.5,6.1a.474.474,0,0,1,.545.029l.006,0a.394.394,0,0,1,.053.058l1.1,1.495a.375.375,0,0,1,.04.069v0a.473.473,0,0,1-.134.532A10.561,10.561,0,0,0,22.1,13.115a5.994,5.994,0,0,1-2.13,3.145,5.355,5.355,0,0,1-1.193.661H15.007a4.514,4.514,0,0,1-1.911-1.5ZM31.4,18.7H10.236a.48.48,0,1,0,0,.96H28.574l-.173.424a1.37,1.37,0,0,1-1.273.855H5.637a1.37,1.37,0,0,1-1.273-.855l-.173-.424H8a.48.48,0,1,0,0-.96H1.37a.41.41,0,0,1,0-.82H31.4a.41.41,0,0,1,0,.82Zm0,0" transform="translate(0.5 0.003)" fill="#fff" stroke="#fff" stroke-width="1"/>
</svg>
