<svg xmlns="http://www.w3.org/2000/svg" width="32.936" height="30.128" viewBox="0 0 32.936 30.128">
  <g id="first-aid-kit" transform="translate(-24.874 -28.936)">
    <path id="Path_974" data-name="Path 974" d="M64.392,61.545H61.706V58.859a1.027,1.027,0,0,0-1.027-1.027H55.8a1.027,1.027,0,0,0-1.027,1.027v2.686H52.087a1.027,1.027,0,0,0-1.027,1.027v4.881a1.026,1.026,0,0,0,1.027,1.027h2.686v2.686A1.026,1.026,0,0,0,55.8,72.191H60.68a1.026,1.026,0,0,0,1.027-1.026V68.479h2.686a1.026,1.026,0,0,0,1.026-1.027V62.571A1.027,1.027,0,0,0,64.392,61.545Zm-1.026,4.881H60.679a1.026,1.026,0,0,0-1.027,1.027v2.686H56.825V67.452A1.026,1.026,0,0,0,55.8,66.425H53.113V63.6H55.8a1.026,1.026,0,0,0,1.027-1.027V59.885h2.828v2.686A1.026,1.026,0,0,0,60.68,63.6h2.686v2.828Z" transform="translate(-16.897 -18.68)" fill="#fff" stroke="#fff" stroke-width="1"/>
    <path id="Path_975" data-name="Path 975" d="M54.624,34.1h-6.31V32.516a3.083,3.083,0,0,0-3.08-3.08H37.45a3.083,3.083,0,0,0-3.08,3.08V34.1h-6.31a2.69,2.69,0,0,0-2.687,2.687V55.877a2.69,2.69,0,0,0,2.687,2.687H54.624a2.69,2.69,0,0,0,2.687-2.687V36.786A2.69,2.69,0,0,0,54.624,34.1Zm-18.2-1.583a1.028,1.028,0,0,1,1.027-1.027h7.784a1.028,1.028,0,0,1,1.027,1.027V34.1H36.423ZM55.257,55.877a.634.634,0,0,1-.634.634H28.061a.634.634,0,0,1-.634-.634V36.786a.634.634,0,0,1,.634-.634H54.624a.635.635,0,0,1,.634.634V55.877Z" transform="translate(0)" fill="#fff" stroke="#fff" stroke-width="1"/>
  </g>
</svg>
