<svg xmlns="http://www.w3.org/2000/svg" width="34.02" height="34.018" viewBox="0 0 34.02 34.018">
  <g id="customer-support" transform="translate(0.25 0.521)">
    <path id="Path_1012" data-name="Path 1012" d="M.385,3.1l2.2,3.848a.549.549,0,0,0,.344.261l2.052.513,7.036,7.036.777-.777L5.646,6.833a.548.548,0,0,0-.255-.145L3.42,6.194,1.547,2.916,3.152,1.311,6.432,3.185l.495,1.971a.548.548,0,0,0,.145.256l7.146,7.146.777-.777L7.959,4.744l-.513-2.05a.551.551,0,0,0-.261-.344L3.337.151a.55.55,0,0,0-.66.088l-2.2,2.2A.55.55,0,0,0,.385,3.1Zm0,0" transform="translate(-0.038 -0.075)" fill="#fff" stroke="#fff" stroke-width="1"/>
    <path id="Path_1013" data-name="Path 1013" d="M186.852,174.5,174.759,186.59l-.777-.777,12.094-12.094Zm0,0" transform="translate(-163.652 -163.663)" fill="#fff" stroke="#fff" stroke-width="1"/>
    <path id="Path_1014" data-name="Path 1014" d="M53.721,399.1a.55.55,0,0,0-.471-.267h-3.3a.549.549,0,0,0-.471.267l-1.649,2.748a.55.55,0,0,0,0,.566l1.649,2.748a.55.55,0,0,0,.471.267h3.3a.55.55,0,0,0,.471-.267l1.649-2.748a.55.55,0,0,0,0-.566Zm-.782,5.23H50.263l-1.319-2.2,1.319-2.2h2.676l1.319,2.2Zm0,0" transform="translate(-44.731 -375.747)" fill="#fff" stroke="#fff" stroke-width="1"/>
    <path id="Path_1015" data-name="Path 1015" d="M26.66,13.194A6.574,6.574,0,0,0,33.054,5a.55.55,0,0,0-.922-.256L28.71,8.167,26,7.262,25.09,4.548l3.422-3.423A.55.55,0,0,0,28.254.2,6.576,6.576,0,0,0,20.063,6.6,6.452,6.452,0,0,0,20.2,7.886L8.158,19.924a6.485,6.485,0,0,0-1.288-.134,6.6,6.6,0,1,0,6.6,6.6,6.469,6.469,0,0,0-.134-1.288l2.882-2.882,1.26,1.26a.55.55,0,0,0,.777,0l.275-.275a.617.617,0,0,1,.873.871h0l-.275.275a.55.55,0,0,0,0,.777l6.558,6.558a4.437,4.437,0,1,0,6.3-6.246l-.028-.028L25.4,18.852a.55.55,0,0,0-.777,0l-.275.275a.617.617,0,0,1-.873-.871h0l.275-.275a.55.55,0,0,0,0-.777l-1.26-1.26,2.882-2.882a6.468,6.468,0,0,0,1.288.134Zm2.16,18.69a3.34,3.34,0,0,1-1.169-.213l4.293-4.293a3.334,3.334,0,0,1-3.124,4.507ZM22.592,17.6a1.716,1.716,0,0,0,2.419,2.415l6.169,6.174c.067.067.13.138.19.21l-4.7,4.7c-.072-.06-.143-.123-.21-.19l-6.174-6.174a1.716,1.716,0,0,0-2.419-2.416l-.879-.879,4.725-4.718Zm2.22-5.529L12.341,24.536a.551.551,0,0,0-.145.522,5.534,5.534,0,1,1-4-4,.555.555,0,0,0,.522-.145L21.189,8.448a.549.549,0,0,0,.145-.522,5.47,5.47,0,0,1,5.639-6.816l-2.9,2.9a.549.549,0,0,0-.133.562l1.1,3.3a.55.55,0,0,0,.348.347l3.3,1.1a.55.55,0,0,0,.562-.133l2.9-2.9c.007.1.01.209.01.312a5.469,5.469,0,0,1-6.826,5.326.55.55,0,0,0-.522.145h0Zm0,0" transform="translate(0 0)" fill="#fff" stroke="#fff" stroke-width="1"/>
    <path id="Path_1016" data-name="Path 1016" d="M389.165,388.122l-.777.777-5.5-5.5.777-.777Zm0,0" transform="translate(-360.467 -360.474)" fill="#fff" stroke="#fff" stroke-width="1"/>
  </g>
</svg>
