<svg xmlns="http://www.w3.org/2000/svg" width="32.883" height="32.876" viewBox="0 0 32.883 32.876">
  <g id="theater-masks" transform="translate(0.411 0.5)">
    <g id="Group_178" data-name="Group 178" transform="translate(22.679 12.994)">
      <g id="Group_177" data-name="Group 177">
        <path id="Path_976" data-name="Path 976" d="M363.767,208.745a.622.622,0,1,0,.372.8A.622.622,0,0,0,363.767,208.745Z" transform="translate(-362.931 -208.707)" fill="#fff" stroke="#fff" stroke-width="1"/>
      </g>
    </g>
    <g id="Group_180" data-name="Group 180" transform="translate(8.181 2.49)">
      <g id="Group_179" data-name="Group 179">
        <path id="Path_977" data-name="Path 977" d="M130.69,39.993a.622.622,0,1,0,.622.622A.623.623,0,0,0,130.69,39.993Z" transform="translate(-130.068 -39.993)" fill="#fff" stroke="#fff" stroke-width="1"/>
      </g>
    </g>
    <g id="Group_182" data-name="Group 182" transform="translate(0.089)">
      <g id="Group_181" data-name="Group 181">
        <path id="Path_978" data-name="Path 978" d="M31.707,14.717A28.09,28.09,0,0,0,17.518,9.16V1.839a.622.622,0,0,0-.439-.595,28.136,28.136,0,0,0-16.55,0,.623.623,0,0,0-.439.595V12.362a10.01,10.01,0,0,0,7.067,9.569,5.578,5.578,0,0,0,3.3,0,10.093,10.093,0,0,0,.961-.352,9.991,9.991,0,0,0,3.9,9.157,5.681,5.681,0,0,0,3.614,1.14,10,10,0,0,0,9.4-6.588L31.015,17.9l0,0,.9-2.471A.622.622,0,0,0,31.707,14.717ZM11.934,19.929a8.772,8.772,0,0,1-1.849.812,4.339,4.339,0,0,1-2.563,0,8.765,8.765,0,0,1-6.188-8.379V4.935A24.513,24.513,0,0,1,6.771,3.848a.622.622,0,0,0-.1-1.241A25.753,25.753,0,0,0,1.334,3.631V2.3a26.891,26.891,0,0,1,14.939,0V3.631a25.711,25.711,0,0,0-5.3-1.02.622.622,0,0,0-.105,1.24,24.477,24.477,0,0,1,5.4,1.084v7.427a8.794,8.794,0,0,1-4.338,7.566Zm18.209-3.271a25.751,25.751,0,0,0-4.629-2.771.622.622,0,0,0-.523,1.13A24.512,24.512,0,0,1,29.7,17.883l-2.541,6.98a8.721,8.721,0,0,1-8.681,5.757,4.337,4.337,0,0,1-2.408-.876A8.747,8.747,0,0,1,12.8,20.861a10.021,10.021,0,0,0,3.72-4.147.621.621,0,0,0,.593-.093,1.245,1.245,0,0,1,2,.81.622.622,0,0,0,1.233-.173,2.491,2.491,0,0,0-3.25-2.019,9.971,9.971,0,0,0,.409-2.325,24.51,24.51,0,0,1,3.638.7.623.623,0,0,0,.327-1.2,25.769,25.769,0,0,0-3.948-.747V10.411a26.843,26.843,0,0,1,13.07,5.025Z" transform="translate(-0.089)" fill="#fff" stroke="#fff" stroke-width="1"/>
      </g>
    </g>
    <g id="Group_184" data-name="Group 184" transform="translate(3.824 11.827)">
      <g id="Group_183" data-name="Group 183">
        <path id="Path_979" data-name="Path 979" d="M69.731,190.05a.622.622,0,0,0-.621,0,8.16,8.16,0,0,1-8.1,0,.622.622,0,0,0-.931.54,4.98,4.98,0,1,0,9.96,0A.622.622,0,0,0,69.731,190.05Zm-4.67,4.273a3.742,3.742,0,0,1-3.578-2.663,9.4,9.4,0,0,0,7.158,0A3.736,3.736,0,0,1,65.061,194.324Z" transform="translate(-60.081 -189.966)" fill="#fff" stroke="#fff" stroke-width="1"/>
      </g>
    </g>
    <g id="Group_186" data-name="Group 186" transform="translate(10.301 6.225)">
      <g id="Group_185" data-name="Group 185">
        <path id="Path_980" data-name="Path 980" d="M168.548,101.306a2.491,2.491,0,0,0-4.353-.084.622.622,0,0,0,1.076.627,1.246,1.246,0,0,1,2.178.042.623.623,0,0,0,1.1-.584Z" transform="translate(-164.11 -99.984)" fill="#fff" stroke="#fff" stroke-width="1"/>
      </g>
    </g>
    <g id="Group_188" data-name="Group 188" transform="translate(2.831 6.225)">
      <g id="Group_187" data-name="Group 187">
        <path id="Path_981" data-name="Path 981" d="M48.568,101.305a2.491,2.491,0,0,0-4.353-.084.622.622,0,1,0,1.076.627,1.246,1.246,0,0,1,2.178.042.623.623,0,0,0,1.1-.584Z" transform="translate(-44.13 -99.983)" fill="#fff" stroke="#fff" stroke-width="1"/>
      </g>
    </g>
    <g id="Group_190" data-name="Group 190" transform="translate(14.113 20.92)">
      <g id="Group_189" data-name="Group 189">
        <path id="Path_982" data-name="Path 982" d="M231.772,336.318a4.986,4.986,0,0,0-6.383,2.976.623.623,0,0,0,.69.826,8.149,8.149,0,0,1,7.609,2.769.623.623,0,0,0,1.06-.189,4.976,4.976,0,0,0-2.976-6.383Zm2.027,4.9a9.385,9.385,0,0,0-6.725-2.447A3.736,3.736,0,0,1,233.8,341Q233.8,341.106,233.8,341.213Z" transform="translate(-225.351 -336.017)" fill="#fff" stroke="#fff" stroke-width="1"/>
      </g>
    </g>
    <g id="Group_192" data-name="Group 192" transform="translate(23.076 17.669)">
      <g id="Group_191" data-name="Group 191">
        <path id="Path_983" data-name="Path 983" d="M373.592,285.947a2.49,2.49,0,0,0-4.061-1.569.623.623,0,0,0,.8.957,1.245,1.245,0,0,1,2.032.783.622.622,0,1,0,1.233-.171Z" transform="translate(-369.307 -283.802)" fill="#fff" stroke="#fff" stroke-width="1"/>
      </g>
    </g>
  </g>
</svg>
