<svg xmlns="http://www.w3.org/2000/svg" width="35.867" height="37.922" viewBox="0 0 35.867 37.922">
  <g id="travel" transform="translate(-25.775 -12.497)">
    <path id="Path_984" data-name="Path 984" d="M238.7,41.977a.509.509,0,0,0,.373.132,16.668,16.668,0,0,1,2.339.055l.049,0a.521.521,0,0,0,.048-1.04,17.691,17.691,0,0,0-2.486-.058.522.522,0,0,0-.324.909Z" transform="translate(-196.15 -25.921)" fill="#fff" stroke="#fff" stroke-width="1"/>
    <path id="Path_985" data-name="Path 985" d="M166.816,49.044a.518.518,0,0,0,.194-.038,16.317,16.317,0,0,1,2.227-.711.521.521,0,0,0-.245-1.013,17.346,17.346,0,0,0-2.37.757.521.521,0,0,0,.194,1Z" transform="translate(-129.394 -31.668)" fill="#fff" stroke="#fff" stroke-width="1"/>
    <path id="Path_986" data-name="Path 986" d="M105.94,77.348a.521.521,0,1,0-.564-.876,17.563,17.563,0,0,0-1.99,1.492.521.521,0,0,0,.683.787,16.522,16.522,0,0,1,1.871-1.4Z" transform="translate(-71.093 -58.579)" fill="#fff" stroke="#fff" stroke-width="1"/>
    <path id="Path_987" data-name="Path 987" d="M327.346,43.962h0a.539.539,0,1,0,.1.757.539.539,0,0,0-.1-.757Z" transform="translate(-277.421 -28.51)" fill="#fff" stroke="#fff" stroke-width="1"/>
    <path id="Path_988" data-name="Path 988" d="M344.883,57.512h0a.54.54,0,1,0,.205.358.54.54,0,0,0-.205-.358Z" transform="translate(-293.626 -41.031)" fill="#fff" stroke="#fff" stroke-width="1"/>
    <path id="Path_989" data-name="Path 989" d="M362.432,71.065h0a.539.539,0,1,0,.206.358.539.539,0,0,0-.206-.358Z" transform="translate(-309.844 -53.556)" fill="#fff" stroke="#fff" stroke-width="1"/>
    <path id="Path_990" data-name="Path 990" d="M379.978,84.619h0a.539.539,0,1,0,.1.757.539.539,0,0,0-.1-.757Z" transform="translate(-326.058 -66.081)" fill="#fff" stroke="#fff" stroke-width="1"/>
    <path id="Path_991" data-name="Path 991" d="M273.1,480.538a16.382,16.382,0,0,1-2.307.385.521.521,0,0,0,.048,1.04l.049,0a17.481,17.481,0,0,0,2.454-.41.521.521,0,1,0-.245-1.013Z" transform="translate(-225.528 -432.045)" fill="#fff" stroke="#fff" stroke-width="1"/>
    <path id="Path_992" data-name="Path 992" d="M199.532,480.931a16.4,16.4,0,0,1-2.307-.385.521.521,0,1,0-.245,1.013,17.467,17.467,0,0,0,2.454.41l.049,0a.521.521,0,0,0,.048-1.04Z" transform="translate(-157.383 -432.052)" fill="#fff" stroke="#fff" stroke-width="1"/>
    <path id="Path_993" data-name="Path 993" d="M431.306,134.657a.521.521,0,0,0-.51.817,16.46,16.46,0,0,1,1.219,2,.521.521,0,1,0,.926-.478,17.49,17.49,0,0,0-1.3-2.122A.518.518,0,0,0,431.306,134.657Z" transform="translate(-373.734 -112.419)" fill="#fff" stroke="#fff" stroke-width="1"/>
    <path id="Path_994" data-name="Path 994" d="M344.08,451.5a16.368,16.368,0,0,1-2.051,1.122.521.521,0,1,0,.433.948,17.447,17.447,0,0,0,2.182-1.193.521.521,0,1,0-.564-.876Z" transform="translate(-291.512 -405.146)" fill="#fff" stroke="#fff" stroke-width="1"/>
    <path id="Path_995" data-name="Path 995" d="M405.376,401.789a.521.521,0,0,0-.732.087,16.542,16.542,0,0,1-1.574,1.731.521.521,0,0,0,.719.754,17.58,17.58,0,0,0,1.674-1.84A.522.522,0,0,0,405.376,401.789Z" transform="translate(-348.052 -359.182)" fill="#fff" stroke="#fff" stroke-width="1"/>
    <path id="Path_996" data-name="Path 996" d="M463.538,204.065a.524.524,0,0,0,.515.448.547.547,0,0,0,.074-.005.522.522,0,0,0,.442-.589,17.4,17.4,0,0,0-.526-2.432.521.521,0,0,0-1,.293A16.362,16.362,0,0,1,463.538,204.065Z" transform="translate(-403.604 -173.838)" fill="#fff" stroke="#fff" stroke-width="1"/>
    <path id="Path_997" data-name="Path 997" d="M448.815,336.83a.521.521,0,0,0-.663.322,16.337,16.337,0,0,1-.922,2.15.521.521,0,1,0,.926.478,17.388,17.388,0,0,0,.981-2.288.521.521,0,0,0-.322-.663Z" transform="translate(-388.95 -299.23)" fill="#fff" stroke="#fff" stroke-width="1"/>
    <path id="Path_998" data-name="Path 998" d="M30.685,194.351a.521.521,0,0,0,.61-.414,16.338,16.338,0,0,1,.6-2.259.521.521,0,1,0-.985-.341,17.378,17.378,0,0,0-.643,2.4.521.521,0,0,0,.414.61Z" transform="translate(-3.684 -164.48)" fill="#fff" stroke="#fff" stroke-width="1"/>
    <path id="Path_999" data-name="Path 999" d="M131.484,452.606a16.429,16.429,0,0,1-2.053-1.123.521.521,0,1,0-.564.876,17.464,17.464,0,0,0,2.183,1.195.515.515,0,0,0,.217.047.521.521,0,0,0,.217-1Z" transform="translate(-94.586 -405.131)" fill="#fff" stroke="#fff" stroke-width="1"/>
    <path id="Path_1000" data-name="Path 1000" d="M27.482,266.751a16.6,16.6,0,0,1-.165-2.334.521.521,0,1,0-1.042,0,17.639,17.639,0,0,0,.175,2.48.524.524,0,0,0,.515.447.548.548,0,0,0,.074-.005A.522.522,0,0,0,27.482,266.751Z" transform="translate(0 -231.857)" fill="#fff" stroke="#fff" stroke-width="1"/>
    <path id="Path_1001" data-name="Path 1001" d="M470.442,263.9a.522.522,0,0,0-.521.521,16.614,16.614,0,0,1-.165,2.334.521.521,0,0,0,.442.589.547.547,0,0,0,.074.005.524.524,0,0,0,.515-.448,17.655,17.655,0,0,0,.175-2.481A.522.522,0,0,0,470.442,263.9Z" transform="translate(-409.822 -231.861)" fill="#fff" stroke="#fff" stroke-width="1"/>
    <path id="Path_1002" data-name="Path 1002" d="M39.481,337.146a.521.521,0,1,0-.985.341,17.391,17.391,0,0,0,.98,2.287.521.521,0,1,0,.926-.478A16.352,16.352,0,0,1,39.481,337.146Z" transform="translate(-11.268 -299.224)" fill="#fff" stroke="#fff" stroke-width="1"/>
    <path id="Path_1003" data-name="Path 1003" d="M74.867,401.857a.521.521,0,0,0-.819.645,17.573,17.573,0,0,0,1.673,1.84.521.521,0,1,0,.719-.754,16.534,16.534,0,0,1-1.574-1.731Z" transform="translate(-44.044 -359.165)" fill="#fff" stroke="#fff" stroke-width="1"/>
    <path id="Path_1004" data-name="Path 1004" d="M58.3,126.243a.522.522,0,0,0-.732.087,17.527,17.527,0,0,0-1.4,2.059.521.521,0,1,0,.9.522,16.456,16.456,0,0,1,1.313-1.936A.522.522,0,0,0,58.3,126.243Z" transform="translate(-27.567 -104.547)" fill="#fff" stroke="#fff" stroke-width="1"/>
    <path id="Path_1005" data-name="Path 1005" d="M299.147,24.394a.775.775,0,0,0,.818-.275.455.455,0,0,0,.073-.139l.757-2.356,2.093-1.333a.453.453,0,0,0,.116-.106.777.777,0,0,0-.642-1.252l-2.432-.325-1.217-.94,1.672-2.164a.736.736,0,0,0-.132-1.032l-.524-.4a1.019,1.019,0,0,0-1.288.037L296.4,15.88l-3.229-2.494a1.857,1.857,0,1,0-2.271,2.94l3.229,2.494-1.2,2.425a1.019,1.019,0,0,0,.289,1.256l.524.4a.73.73,0,0,0,.448.154.747.747,0,0,0,.1-.006.731.731,0,0,0,.488-.28l1.672-2.165,1.217.94.933,2.266A.775.775,0,0,0,299.147,24.394Zm-.693-3.3a.455.455,0,0,0-.143-.187l-2.34-1.807a.455.455,0,1,0-.557.721l.305.236-1.565,2.026-.385-.3a.106.106,0,0,1-.03-.13l1.368-2.76a.455.455,0,0,0-.13-.563l-3.524-2.722a.947.947,0,1,1,1.157-1.5l3.524,2.722a.455.455,0,0,0,.577-.017l2.324-2.021a.106.106,0,0,1,.134,0l.385.3-1.565,2.026-.305-.236a.455.455,0,1,0-.557.721l2.34,1.807a.455.455,0,0,0,.218.091l2.278.3-1.8,1.145a.455.455,0,0,0-.189.245l-.65,2.023Z" transform="translate(-243.875)" fill="#fff" stroke="#fff" stroke-width="1"/>
    <path id="Path_1006" data-name="Path 1006" d="M122.965,126.809a10.925,10.925,0,1,0,10.925,10.925A10.937,10.937,0,0,0,122.965,126.809Zm-10.014,10.925a10.026,10.026,0,0,1,9.629-10.006l.466,2.834a.671.671,0,0,1-.294.669l-1.759,1.152a1.576,1.576,0,0,0-.687,1.619l.236,1.238a1.587,1.587,0,0,0,.867,1.128l1.236.595a.672.672,0,0,1,.369.723l-.45,2.5a.67.67,0,0,1-1.267.164l-.453-.975a1.586,1.586,0,0,0-1.434-.915h-1.831a1.573,1.573,0,0,0-.908.287l-1.231.864a.669.669,0,0,1-.54.1l-1.83-.434A10.043,10.043,0,0,1,112.951,137.734Zm15.149,5.452.321,2.942a10.009,10.009,0,0,1-15.145-5.863l1.414.336a1.582,1.582,0,0,0,1.273-.244l1.231-.864a.667.667,0,0,1,.385-.121h1.831a.672.672,0,0,1,.608.388l.453.975a1.568,1.568,0,0,0,1.27.906,1.626,1.626,0,0,0,.168.009,1.566,1.566,0,0,0,1.261-.634,1.588,1.588,0,0,0,.29-.667l.45-2.5a1.585,1.585,0,0,0-.87-1.7l-1.236-.595a.673.673,0,0,1-.368-.478l-.236-1.238a.668.668,0,0,1,.291-.686l1.758-1.152a1.582,1.582,0,0,0,.694-1.579l-.441-2.68a10,10,0,0,1,7.175,3.62l-.774.551a2.309,2.309,0,0,0-.9,1.307l-.246.961a2.306,2.306,0,0,0,.814,2.388,1.4,1.4,0,0,1,.5,1.4l-.5,2.216a1.393,1.393,0,0,1-.379.686l-.433.429A2.294,2.294,0,0,0,128.1,143.185Zm4.88-5.452a10,10,0,0,1-3.711,7.775L129,143.086a1.388,1.388,0,0,1,.405-1.143l.433-.429a2.3,2.3,0,0,0,.627-1.134l.5-2.216a2.316,2.316,0,0,0-.83-2.321,1.4,1.4,0,0,1-.493-1.445l.246-.96a1.4,1.4,0,0,1,.542-.791l.794-.566a9.957,9.957,0,0,1,1.752,5.652Z" transform="translate(-79.257 -105.173)" fill="#fff" stroke="#fff" stroke-width="1"/>
  </g>
</svg>
