<svg xmlns="http://www.w3.org/2000/svg" width="39.558" height="39.558" viewBox="0 0 39.558 39.558">
  <g id="XMLID_823_" transform="translate(0.5 0.5)">
    <path id="XMLID_850_" d="M58.768,27.578v-15.8a11.807,11.807,0,0,0-1.3-5.387.753.753,0,1,0-1.339.69,10.154,10.154,0,0,1,1.135,4.7V27.012a9.235,9.235,0,0,0-2.48-.338H53.075a2.594,2.594,0,0,1-2.591-2.591V22.478A8.454,8.454,0,0,0,54.4,15.339V12.805a4.658,4.658,0,0,0-1.379-3.287,4.456,4.456,0,0,0-3.15-1.311h-.047a4.528,4.528,0,0,0-2.8,1.013,4.528,4.528,0,0,0-2.8-1.013h-.047a4.457,4.457,0,0,0-3.15,1.311,4.658,4.658,0,0,0-1.379,3.287v2.534a8.453,8.453,0,0,0,3.916,7.138v1.606a2.594,2.594,0,0,1-2.591,2.591H39.257a9.232,9.232,0,0,0-2.53.351V11.773A10.279,10.279,0,0,1,46.995,1.506a10.152,10.152,0,0,1,4.726,1.15.753.753,0,0,0,.694-1.337A11.777,11.777,0,0,0,35.221,11.773V27.6A9.269,9.269,0,0,0,30,35.932v1.873a.753.753,0,1,0,1.506,0V35.932a7.76,7.76,0,0,1,7.751-7.751h1.707a4.1,4.1,0,0,0,4.1-4.1v-.843a8.463,8.463,0,0,0,1.843.481.756.756,0,0,0,.114.009.776.776,0,0,0,.111-.008,8.467,8.467,0,0,0,1.848-.482v.843a4.1,4.1,0,0,0,4.1,4.1h1.707a7.76,7.76,0,0,1,7.751,7.751v1.873a.753.753,0,1,0,1.506,0V35.932a9.269,9.269,0,0,0-5.272-8.355ZM47.02,22.216a7,7,0,0,1-5.874-6.877V12.805a3.142,3.142,0,0,1,.932-2.217,2.961,2.961,0,0,1,2.091-.875H44.2a3.024,3.024,0,0,1,2.251,1.044.753.753,0,0,0,1.138,0A3.024,3.024,0,0,1,49.84,9.713h.031a2.961,2.961,0,0,1,2.091.875,3.142,3.142,0,0,1,.932,2.217v2.534a7,7,0,0,1-5.874,6.877Z" transform="translate(-27.741 0)" fill="#fff" stroke="#fff" stroke-width="1"/>
    <path id="XMLID_851_" d="M237.455,235.9a.346.346,0,0,1-.489,0,.753.753,0,1,0-1.065,1.065,1.852,1.852,0,0,0,2.62,0,.753.753,0,0,0-1.065-1.065Z" transform="translate(-217.931 -217.931)" fill="#fff" stroke="#fff" stroke-width="1"/>
    <path id="XMLID_852_" d="M134.635,432.332a.753.753,0,0,0-.753.753v.268a8.314,8.314,0,0,0-9.188,2.107,8.314,8.314,0,0,0-9.188-2.107v-.268a.753.753,0,1,0-1.506,0v4.493a.753.753,0,1,0,1.506,0V435a6.811,6.811,0,0,1,8.578,2.088.753.753,0,0,0,1.219,0A6.811,6.811,0,0,1,133.882,435v2.576a.753.753,0,0,0,1.506,0v-4.493A.753.753,0,0,0,134.635,432.332Z" transform="translate(-105.415 -399.773)" fill="#fff" stroke="#fff" stroke-width="1"/>
    <path id="XMLID_853_" d="M280.813,177.17a.753.753,0,1,0,.532.221A.755.755,0,0,0,280.813,177.17Z" transform="translate(-258.969 -163.827)" fill="#fff" stroke="#fff" stroke-width="1"/>
    <path id="XMLID_854_" d="M212.693,177.17a.753.753,0,1,0,.532.221A.757.757,0,0,0,212.693,177.17Z" transform="translate(-195.979 -163.827)" fill="#fff" stroke="#fff" stroke-width="1"/>
    <path id="XMLID_855_" d="M458.753,91.979a.632.632,0,0,1-.631-.631.753.753,0,1,0-1.506,0,.632.632,0,0,1-.631.631.753.753,0,1,0,0,1.506.632.632,0,0,1,.631.631.753.753,0,1,0,1.506,0,.632.632,0,0,1,.631-.631.753.753,0,0,0,0-1.506Z" transform="translate(-420.948 -83.772)" fill="#fff" stroke="#fff" stroke-width="1"/>
    <path id="XMLID_856_" d="M2.891,231.264a.632.632,0,0,1,.631-.631.753.753,0,1,0,0-1.506.632.632,0,0,1-.631-.631.753.753,0,0,0-1.506,0,.632.632,0,0,1-.631.631.753.753,0,1,0,0,1.506.632.632,0,0,1,.631.631.753.753,0,1,0,1.506,0Z" transform="translate(0 -210.591)" fill="#fff" stroke="#fff" stroke-width="1"/>
    <path id="XMLID_857_" d="M350.054,44.526a.753.753,0,1,0-.533-.221A.754.754,0,0,0,350.054,44.526Z" transform="translate(-322.994 -39.78)" fill="#fff" stroke="#fff" stroke-width="1"/>
  </g>
</svg>

