<svg xmlns="http://www.w3.org/2000/svg" width="29.244" height="29.002" viewBox="0 0 29.244 29.002">
  <g id="sale-label" transform="translate(0.244 0.5)">
    <path id="Path_1007" data-name="Path 1007" d="M25,0H16.75a3.48,3.48,0,0,0-2.475,1.025L1.523,13.777a3.506,3.506,0,0,0,0,4.95l8.25,8.25a3.5,3.5,0,0,0,4.95,0L27.475,14.225A3.476,3.476,0,0,0,28.5,11.75V3.5A3.5,3.5,0,0,0,25,0Zm1.167,11.75a1.162,1.162,0,0,1-.341.826L13.074,25.327a1.2,1.2,0,0,1-1.65,0l-8.25-8.25a1.169,1.169,0,0,1,0-1.65L15.924,2.675a1.16,1.16,0,0,1,.825-.342H25A1.168,1.168,0,0,1,26.167,3.5Zm0,0" transform="translate(0)" fill="#fff" stroke="#fff" stroke-width="1"/>
    <path id="Path_1008" data-name="Path 1008" d="M236.157,57.407a4.5,4.5,0,1,0-6.537,6.183l.376.4a4.461,4.461,0,0,0,3.206,1.406h.064a4.5,4.5,0,0,0,3.266-7.59Zm-1.831,4.549a1.5,1.5,0,0,1-2.149-.03l-.376-.4A1.5,1.5,0,0,1,232.888,59h.022a1.485,1.485,0,0,1,1.068.469l.377.4a1.49,1.49,0,0,1-.029,2.089Zm0,0" transform="translate(-213.428 -51.836)" fill="#fff" stroke="#fff" stroke-width="1"/>
    <path id="Path_1009" data-name="Path 1009" d="M129.952,145.058l.715.227a1.5,1.5,0,1,0,.91-2.858l-.714-.227a1.5,1.5,0,0,0-.91,2.858Zm0,0" transform="translate(-119.351 -132.056)" fill="#fff" stroke="#fff" stroke-width="1"/>
    <path id="Path_1010" data-name="Path 1010" d="M171.076,255.746l-.714-.227a1.5,1.5,0,0,0-.909,2.86l.715.227a1.529,1.529,0,0,0,.454.071,1.5,1.5,0,0,0,.454-2.931Zm0,0" transform="translate(-156.064 -237.345)" fill="#fff" stroke="#fff" stroke-width="1"/>
    <path id="Path_1011" data-name="Path 1011" d="M120.617,179.377l-7.537,3.9a1.5,1.5,0,0,0,.691,2.832,1.482,1.482,0,0,0,.688-.168l7.537-3.9a1.5,1.5,0,0,0-1.378-2.665Zm0,0" transform="translate(-104.582 -167.026)" fill="#fff" stroke="#fff" stroke-width="1"/>
  </g>
</svg>
