<svg xmlns="http://www.w3.org/2000/svg" width="27.867" height="32" viewBox="0 0 27.867 32">
  <g id="educational-book" transform="translate(-47.5 -15.5)">
    <path id="Path_962" data-name="Path 962" d="M72.283,16H48.517a.517.517,0,0,0-.517.517v27.9A2.586,2.586,0,0,0,50.583,47H74.35a.517.517,0,0,0,.517-.517V17.55a.517.517,0,0,0-.517-.517H72.8v-.517A.517.517,0,0,0,72.283,16ZM51.1,17.033H71.767V43.9H51.1Zm-2.067,0h1.033V43.9H49.033Zm24.8,1.033v27.9H50.583a1.553,1.553,0,0,1-1.461-1.033H72.283a.517.517,0,0,0,.517-.517V18.067Z" fill="#fff" stroke="#fff" stroke-width="1"/>
    <path id="Path_963" data-name="Path 963" d="M184.116,161.619a5.363,5.363,0,0,0,.631-8.145A5.063,5.063,0,0,0,181.089,152a5.248,5.248,0,0,0-5.093,5.3,5.331,5.331,0,0,0,2.215,4.328.278.278,0,0,1,.111.228v.69a1.549,1.549,0,0,0,.258,2.8v.605a1.552,1.552,0,0,0,1.55,1.55H182.2a1.552,1.552,0,0,0,1.55-1.55v-.606a1.549,1.549,0,0,0,.258-2.8v-.689A.279.279,0,0,1,184.116,161.619Zm-7.087-4.329a4.211,4.211,0,0,1,4.074-4.261,4.056,4.056,0,0,1,2.918,1.181,4.33,4.33,0,0,1-.506,6.567,1.314,1.314,0,0,0-.545,1.07v.481h-3.617v-.481a1.312,1.312,0,0,0-.544-1.069A4.3,4.3,0,0,1,177.029,157.29Zm5.167,9.172h-2.067a.517.517,0,0,1-.517-.517v-.517h3.1v.517A.517.517,0,0,1,182.2,166.463Zm1.033-2.067H179.1a.517.517,0,1,1,0-1.033h4.133a.517.517,0,1,1,0,1.033Z" transform="translate(-119.729 -127.213)" fill="#fff" stroke="#fff" stroke-width="1"/>
    <path id="Path_964" data-name="Path 964" d="M264.317,188.13a2.336,2.336,0,0,1,1.346,1.526.517.517,0,1,0,.995-.28,3.377,3.377,0,0,0-1.949-2.2.517.517,0,0,0-.391.956Z" transform="translate(-202.046 -160.083)" fill="#fff" stroke="#fff" stroke-width="1"/>
    <path id="Path_965" data-name="Path 965" d="M248.517,106.067a.517.517,0,0,0,.517-.517v-1.033a.517.517,0,1,0-1.033,0v1.033A.517.517,0,0,0,248.517,106.067Z" transform="translate(-187.083 -82.317)" fill="#fff" stroke="#fff" stroke-width="1"/>
    <path id="Path_966" data-name="Path 966" d="M195.7,113.669a.517.517,0,0,0,.944-.42l-.42-.944a.517.517,0,1,0-.944.42Z" transform="translate(-137.725 -89.798)" fill="#fff" stroke="#fff" stroke-width="1"/>
    <path id="Path_967" data-name="Path 967" d="M153.679,143.993l-.768-.691a.517.517,0,1,0-.691.768l.768.691a.517.517,0,1,0,.691-.768Z" transform="translate(-97.321 -118.948)" fill="#fff" stroke="#fff" stroke-width="1"/>
    <path id="Path_968" data-name="Path 968" d="M127.221,189.722l-.983-.319a.517.517,0,1,0-.319.983l.983.319a.517.517,0,1,0,.319-.983Z" transform="translate(-72.552 -162.18)" fill="#fff" stroke="#fff" stroke-width="1"/>
    <path id="Path_969" data-name="Path 969" d="M121.483,240.643l-1.028.108a.517.517,0,0,0,.053,1.031l.055,0,1.028-.108a.517.517,0,1,0-.108-1.028Z" transform="translate(-67.343 -210.132)" fill="#fff" stroke="#fff" stroke-width="1"/>
    <path id="Path_970" data-name="Path 970" d="M361.686,240.751l-1.028-.108a.517.517,0,1,0-.108,1.028l1.028.108.055,0a.517.517,0,0,0,.053-1.031Z" transform="translate(-291.932 -210.132)" fill="#fff" stroke="#fff" stroke-width="1"/>
    <path id="Path_971" data-name="Path 971" d="M355.894,190.7l.983-.319a.517.517,0,1,0-.319-.983l-.983.319a.517.517,0,1,0,.319.983Z" transform="translate(-287.376 -162.18)" fill="#fff" stroke="#fff" stroke-width="1"/>
    <path id="Path_972" data-name="Path 972" d="M333.6,143.455a.517.517,0,0,0-.73-.038l-.768.691a.517.517,0,1,0,.691.768l.768-.692A.517.517,0,0,0,333.6,143.455Z" transform="translate(-265.592 -119.064)" fill="#fff" stroke="#fff" stroke-width="1"/>
    <path id="Path_973" data-name="Path 973" d="M294.558,113.931a.516.516,0,0,0,.682-.262l.42-.944a.517.517,0,1,0-.944-.42l-.42.944A.517.517,0,0,0,294.558,113.931Z" transform="translate(-230.348 -89.798)" fill="#fff" stroke="#fff" stroke-width="1"/>
  </g>
</svg>
