<svg xmlns="http://www.w3.org/2000/svg" width="36.011" height="36.038" viewBox="0 0 36.011 36.038">
  <g id="game-console" transform="translate(-15.5 -15.5)">
    <path id="Path_957" data-name="Path 957" d="M50.529,40.374,48.457,30.016A2.926,2.926,0,0,0,45.6,27.67H34.089V19.5a3.5,3.5,0,0,0-7,0,2.334,2.334,0,1,1-4.668,0V16.584a.584.584,0,1,0-1.167,0V19.5a3.5,3.5,0,1,0,7,0,2.334,2.334,0,1,1,4.668,0V27.67H21.415a2.925,2.925,0,0,0-2.861,2.345L16.482,40.374A24.879,24.879,0,0,0,16,45.242v.012a5.813,5.813,0,0,0,1.36,3.736,5.681,5.681,0,0,0,9.355-.976l1.91-3.548a1.977,1.977,0,0,1,1.743-1.041h6.274a1.977,1.977,0,0,1,1.743,1.041l1.91,3.548A5.7,5.7,0,0,0,51.011,45.25v-.008a24.866,24.866,0,0,0-.481-4.863ZM29.421,28.837H37.59v2.334a1.753,1.753,0,0,1-1.751,1.751H31.171a1.752,1.752,0,0,1-1.751-1.751ZM24.022,49.2a4.531,4.531,0,0,1-6.855-3.949v-.012a23.709,23.709,0,0,1,.46-4.639l.094-.467,7.725,7.724A4.532,4.532,0,0,1,24.022,49.2Zm15.392-5.29a3.143,3.143,0,0,0-2.771-1.655H30.368A3.143,3.143,0,0,0,27.6,43.913L26.04,46.805,18,38.76l1.7-8.515a1.755,1.755,0,0,1,1.717-1.407h6.839v2.334a2.921,2.921,0,0,0,2.918,2.918h4.668a2.921,2.921,0,0,0,2.918-2.918V28.837H45.6a1.755,1.755,0,0,1,1.717,1.407l1.7,8.515L40.97,46.8Zm10.43,1.337a4.531,4.531,0,0,1-8.278,2.61l7.725-7.725.093.468a23.709,23.709,0,0,1,.46,4.639Z" fill="#fff" stroke="#fff" stroke-width="1"/>
    <path id="Path_958" data-name="Path 958" d="M71.586,242.334H69.835v-1.751a.584.584,0,0,0-.584-.583H66.918a.584.584,0,0,0-.584.583v1.751H64.584a.583.583,0,0,0-.584.583v2.334a.583.583,0,0,0,.584.583h1.751v1.751a.584.584,0,0,0,.584.584h2.334a.584.584,0,0,0,.584-.584v-1.751h1.751a.583.583,0,0,0,.584-.583v-2.334A.583.583,0,0,0,71.586,242.334ZM71,244.668H69.252a.584.584,0,0,0-.584.584V247H67.5v-1.751a.584.584,0,0,0-.584-.584H65.167V243.5h1.751a.584.584,0,0,0,.584-.584v-1.751h1.167v1.751a.584.584,0,0,0,.584.584H71Z" transform="translate(-44.499 -207.662)" fill="#fff" stroke="#fff" stroke-width="1"/>
    <path id="Path_959" data-name="Path 959" d="M340.085,248.169A4.085,4.085,0,1,0,336,244.085,4.085,4.085,0,0,0,340.085,248.169Zm0-7a2.918,2.918,0,1,1-2.918,2.918A2.918,2.918,0,0,1,340.085,241.167Z" transform="translate(-296.66 -207.662)" fill="#fff" stroke="#fff" stroke-width="1"/>
    <path id="Path_960" data-name="Path 960" d="M201.751,315.5a1.751,1.751,0,1,1,1.751-1.751A1.751,1.751,0,0,1,201.751,315.5Zm0-2.334a.584.584,0,1,0,.584.584A.584.584,0,0,0,201.751,313.167Z" transform="translate(-170.579 -274.41)" fill="#fff" stroke="#fff" stroke-width="1"/>
    <path id="Path_961" data-name="Path 961" d="M265.75,315.5a1.751,1.751,0,1,1,1.751-1.751A1.75,1.75,0,0,1,265.75,315.5Zm0-2.334a.584.584,0,1,0,.584.584A.584.584,0,0,0,265.75,313.167Z" transform="translate(-229.911 -274.41)" fill="#fff" stroke="#fff" stroke-width="1"/>
  </g>
</svg>
