<svg xmlns="http://www.w3.org/2000/svg" width="27.227" height="709.073" viewBox="0 0 27.227 709.073">
  <path id="Path_2161" data-name="Path 2161" d="M1367.6,153.413V811.32c-.956,28.714,0,34.609,0,35.8,1.239.33-4.529-.386,0,0v-17a27.5,27.5,0,0,1,0-54.983v-14.1a27.5,27.5,0,0,1,0-54.983v-14.1a27.5,27.5,0,0,1,0-54.983v-14.1a27.5,27.5,0,0,1,0-54.983V553.8a27.493,27.493,0,0,1,0-54.979v-14.1a27.5,27.5,0,0,1,0-54.983v-14.1a27.493,27.493,0,0,1,0-54.979v-14.1a27.5,27.5,0,0,1,0-54.983v-14.1a27.493,27.493,0,0,1,0-54.979V208.4a27.5,27.5,0,0,1,0-54.983Z" transform="translate(-1340.548 -138.14)" fill="#fff"/>
</svg>

