<?xml version="1.0" encoding="utf-8"?>
<svg width="1256.254" height="654.451" viewBox="0 0 1256.254 654.451" xmlns="http://www.w3.org/2000/svg">
  <path id="Path_1950" data-name="Path 1950" d="M 372.037 433.844 C 432.939 430.255 486.019 433.884 548.753 432.949 C 709.558 430.556 878.447 426.261 1039.134 435.197 C 1103.673 438.784 1244.519 421.641 1255.926 345.304 C 1267.843 265.538 1268.717 259.799 1241.049 184.328 C 1143.285 -82.364 814.734 -59.903 620.487 56.679 C 579.611 81.21 537.238 106.854 490.587 116.189 C 442.041 125.905 404.628 101.109 361.087 82.161 C 300.217 55.672 229.675 53.709 168.7 79.923 C -28.457 164.709 -64.96 259.347 84.85 396.606 C 139.439 446.625 310.263 437.485 372.037 433.844 Z" fill="#00c2ac" style=""/>
</svg>