<svg xmlns="http://www.w3.org/2000/svg" width="1256.254" height="654.451" viewBox="0 0 1256.254 654.451">
  <path id="Path_1949" data-name="Path 1949" d="M301.042,722.848c60.792,4.813,124.155-1.023,186.889-1.9,160.805-2.246,321.781-5.215,482.468,3.171,64.539,3.366,133.237.185,189.459-35.339,61.322-38.745,96.178-109.97,107.585-181.606,11.917-74.853,10.531-168.277-17.137-239.1C1152.542,17.808,823.991,38.885,629.744,148.287c-40.876,23.02-83.249,47.085-129.9,55.845-48.546,9.118-85.959-14.151-129.5-31.932-60.87-24.858-131.412-26.7-192.387-2.1C-19.2,249.664-28.575,525.156,121.235,653.961,175.824,700.9,237.007,717.779,301.042,722.848Z" transform="translate(1274.554 725.153) rotate(180)" fill="#ffd229"/>
</svg>
