<svg xmlns="http://www.w3.org/2000/svg" width="1041.199" height="348.984" viewBox="0 0 1041.199 348.984">
  <path id="Path_2160" data-name="Path 2160" d="M354.353,417.41c66.713,4.654,115.684.875,178.418,0,160.805-2.246,280.814,4.654,443.718,0,64.539,3.366,99.244-1.115,167.037.3,62.143-.706,112.511-.3,123.918-.3,11.917-74.853,10.531-78.511-17.137-149.338C1152.542,17.808,823.991,38.885,629.744,148.287c-40.876,23.02-83.249,47.085-129.9,55.845-48.546,9.118-85.959-14.151-129.5-31.932-60.87-24.858-76.016-14.056-136.991,10.547,2.622,141.586.625,87.833.625,234.663,119.446-4.127,29.11,2,41.248,0C295.966,414,315.749,418.4,354.353,417.41Z" transform="translate(-233.355 -70.703)" fill="#00c2ac"/>
</svg>

