<svg xmlns="http://www.w3.org/2000/svg" width="900" height="540" viewBox="0 0 1195.412 719.563">
  <path id="Path_2158" data-name="Path 2158" d="M1394.3,229.1c-.964,0-1.938.042-2.907.132l-16.519,1.48c-.743.068-1.49.116-2.249.116a23.35,23.35,0,0,1-23.322-23.322,24.554,24.554,0,0,1,.163-2.717l1.912-16.914a32.181,32.181,0,0,0-31.974-35.8H1076.277a67.112,67.112,0,1,0-133.329-13.37L894.34,104.669c-27.193-19.041-64.9-12.269-84.052,15.081a28.879,28.879,0,0,0-.579,32.327H353.889a32.18,32.18,0,0,0-31.979,35.8l1.911,16.914a23.87,23.87,0,0,1,.169,2.722,23.351,23.351,0,0,1-23.327,23.322c-.753,0-1.5-.047-2.191-.111l-16.566-1.485c-.974-.09-1.948-.132-2.912-.132a32.2,32.2,0,0,0-32.148,32.184V655.173A32.19,32.19,0,0,0,279,687.363c.958,0,1.927-.042,2.907-.132l16.519-1.49c.737-.063,1.48-.111,2.233-.111a23.351,23.351,0,0,1,23.327,23.322,23.71,23.71,0,0,1-.169,2.717l-1.911,16.908a32.183,32.183,0,0,0,31.979,35.807h965.52a32.175,32.175,0,0,0,31.974-35.8l-1.912-16.919a24.387,24.387,0,0,1-.163-2.712,23.35,23.35,0,0,1,23.322-23.322c.758,0,1.506.047,2.185.111l16.582,1.49c.974.089,1.938.132,2.9.132a32.215,32.215,0,0,0,32.163-32.19V261.289A32.209,32.209,0,0,0,1394.3,229.1Z" transform="translate(-231.044 -44.822)" fill="#0e2a47" opacity="0.3"/>
  <g id="Group_1186" data-name="Group 1186">
    <g id="Group_1103" data-name="Group 1103" transform="translate(558.211)">
      <g id="Group_1102" data-name="Group 1102">
        <path id="Path_1942" data-name="Path 1942" d="M554.661,312.681a66.841,66.841,0,0,1-38.451-12.127,67.647,67.647,0,0,1-28.356-60.319H435.265a28.961,28.961,0,0,1-18.035-51.62L362.2,150.09a28.968,28.968,0,0,1-7.114-40.341c19.157-27.345,56.86-34.117,84.052-15.076l48.608,34.038a67.155,67.155,0,1,1,105.563,58.008q-1.39.972-2.812,1.864c.948.6,1.88,1.211,2.807,1.859a67.188,67.188,0,0,1-38.645,122.239Zm.021-76.4a9.136,9.136,0,1,0,9.131,9.141A9.149,9.149,0,0,0,554.682,236.28Z" transform="translate(-349.853 -64.484)" fill="#fff"/>
      </g>
    </g>
    <path id="Path_1943" data-name="Path 1943" d="M350.887,691.523a32.175,32.175,0,0,1-31.974-35.807l1.911-16.908a24.759,24.759,0,0,0,.169-2.712,23.355,23.355,0,0,0-23.327-23.327c-.758,0-1.5.053-2.233.111l-16.524,1.5c-.979.084-1.943.126-2.9.126a32.19,32.19,0,0,1-32.163-32.184V188.427A32.2,32.2,0,0,1,276,156.248c.964,0,1.932.037,2.912.126l16.566,1.485c.685.063,1.432.116,2.191.116a23.355,23.355,0,0,0,23.327-23.327,24.933,24.933,0,0,0-.169-2.717l-1.911-16.914a32.18,32.18,0,0,1,31.974-35.8h965.52a32.181,32.181,0,0,1,31.979,35.8l-1.911,16.908a24.5,24.5,0,0,0-.163,2.717,23.351,23.351,0,0,0,23.322,23.327c.758,0,1.506-.053,2.249-.121l16.519-1.48c.969-.09,1.943-.126,2.9-.126a32.2,32.2,0,0,1,32.153,32.179v393.89A32.209,32.209,0,0,1,1391.3,614.5c-.958,0-1.922-.042-2.9-.126l-16.582-1.5c-.685-.058-1.427-.111-2.185-.111a23.351,23.351,0,0,0-23.322,23.327,24.238,24.238,0,0,0,.163,2.707l1.911,16.919a32.182,32.182,0,0,1-31.979,35.8Z" transform="translate(-243.845 -1.623)" fill="#fff"/>
    <path id="Path_1944" data-name="Path 1944" d="M338.09,662.928a16.389,16.389,0,0,1-16.282-18.23l1.917-16.914a40,40,0,0,0,.269-4.492,39.167,39.167,0,0,0-39.125-39.119c-1.216,0-2.417.068-3.6.174l-16.566,1.49a16.386,16.386,0,0,1-17.856-16.319V175.629A16.385,16.385,0,0,1,264.7,159.311l16.566,1.485c1.19.105,2.391.179,3.607.179a39.168,39.168,0,0,0,39.125-39.125,40.076,40.076,0,0,0-.269-4.492l-1.917-16.914A16.387,16.387,0,0,1,338.09,82.22h965.52a16.384,16.384,0,0,1,16.282,18.225l-1.911,16.914a40.338,40.338,0,0,0-.263,4.492,39.164,39.164,0,0,0,39.119,39.125c1.216,0,2.422-.074,3.607-.179l16.571-1.485a16.385,16.385,0,0,1,17.851,16.319v393.89a16.389,16.389,0,0,1-17.856,16.319l-16.571-1.49c-1.185-.105-2.385-.174-3.6-.174a39.163,39.163,0,0,0-39.119,39.119,40.337,40.337,0,0,0,.263,4.492l1.911,16.914a16.386,16.386,0,0,1-16.282,18.23Z" transform="translate(-231.048 11.175)" fill="#fff"/>
    <path id="Path_1945" data-name="Path 1945" d="M1331.242,166.97a70.711,70.711,0,0,1-70.714-70.714,72.282,72.282,0,0,1,.463-8.036H329.525a72.282,72.282,0,0,1,.463,8.036,70.711,70.711,0,0,1-70.714,70.714c-2.169,0-4.313-.111-6.43-.3V527.29c2.117-.195,4.26-.305,6.43-.305A70.716,70.716,0,0,1,329.988,597.7a72.358,72.358,0,0,1-.463,8.036h931.466a72.358,72.358,0,0,1-.463-8.036,70.716,70.716,0,0,1,70.714-70.719c2.169,0,4.313.111,6.429.305V166.669C1335.554,166.859,1333.411,166.97,1331.242,166.97Z" transform="translate(-205.453 36.769)" fill="#ffd229"/>
    <path id="Path_1946" data-name="Path 1946" d="M637.513,96.256a71.006,71.006,0,0,1,.469-8.036H398.9V605.739H637.982a70.631,70.631,0,0,1,70.245-78.755c2.169,0,4.313.111,6.429.305V166.669c-2.117.19-4.26.3-6.429.3A70.711,70.711,0,0,1,637.513,96.256Z" transform="translate(417.105 36.78)" fill="#00c2ac"/>
    <g id="Group_1104" data-name="Group 1104" transform="translate(65.822 143.419)">
      <path id="Path_1947" data-name="Path 1947" d="M1220.77,572.379h-26.329v-5.266h26.329Zm-52.658,0h-26.329v-5.266h26.329Zm-52.657,0h-26.329v-5.266h26.329Zm-52.658,0h-26.329v-5.266H1062.8Zm-52.658,0H983.81v-5.266h26.329Zm-52.657,0H931.153v-5.266h26.329Zm-52.658,0H878.495v-5.266h26.329Zm-52.658,0H825.837v-5.266h26.329Zm-52.658,0H773.18v-5.266h26.329Zm-52.658,0H720.522v-5.266h26.329Zm-52.658,0H667.864v-5.266h26.329Zm-52.658,0H615.207v-5.266h26.329Zm-52.658,0H562.549v-5.266h26.329Zm-52.658,0H509.891v-5.266H536.22Zm-52.658,0H457.234v-5.266h26.329Zm-52.658,0H404.576v-5.266h26.329Zm-52.658,0H351.919v-5.266h26.329ZM332.6,570.115a88.476,88.476,0,0,0-7.193-24.438l4.781-2.2a93.564,93.564,0,0,1,7.625,25.9Zm900.861-20.247-4.887-1.954a94.449,94.449,0,0,1,13.475-23.375l4.139,3.249A89.145,89.145,0,0,0,1233.46,549.868Zm-921.9-25.6a90.068,90.068,0,0,0-19.3-16.65l2.838-4.434a95.075,95.075,0,0,1,20.431,17.63Zm953.056-14.086-3.059-4.292a94.419,94.419,0,0,1,23.98-12.39l1.722,4.981A88.8,88.8,0,0,0,1264.617,510.185ZM269.067,497.11a88.5,88.5,0,0,0-10.505-2.349l-2.217-.363V476.921h5.266v13.022c3,.553,5.993,1.264,8.915,2.106Zm1035.244-15.5h-5.266V455.279h5.266Zm-1042.7-31.015h-5.266V424.263h5.266Zm1042.7-21.642h-5.266V402.621h5.266Zm-1042.7-31.015h-5.266V371.606h5.266Zm1042.7-21.642h-5.266V349.964h5.266Zm-1042.7-31.015h-5.266V318.948h5.266Zm1042.7-21.642h-5.266V297.306h5.266Zm-1042.7-31.015h-5.266V266.291h5.266Zm1042.7-21.642h-5.266V244.648h5.266Zm-1042.7-31.015h-5.266V213.633h5.266Zm1042.7-21.642h-5.266V191.991h5.266ZM261.611,187.3h-5.266V169.7l2.217-.353a89.212,89.212,0,0,0,10.389-2.322l1.453,5.06c-2.9.832-5.845,1.522-8.794,2.075ZM1294.927,173.3a94.186,94.186,0,0,1-25.139-9.836l2.6-4.576a88.885,88.885,0,0,0,23.727,9.278ZM295.006,160.975l-2.833-4.444a89.6,89.6,0,0,0,19.32-16.624l3.965,3.465A95.2,95.2,0,0,1,295.006,160.975Zm953.461-14.054a94.768,94.768,0,0,1-15.813-21.863l4.66-2.449a89.6,89.6,0,0,0,14.939,20.652ZM330.139,120.729l-4.781-2.206a88.669,88.669,0,0,0,7.225-24.428l5.213.753A93.861,93.861,0,0,1,330.139,120.729ZM1223.676,99.6c-.168-.869-.332-1.738-.479-2.617h-19.262V91.72h23.807l.321,2.259c.216,1.548.479,3.075.779,4.592Zm-46.07-2.617h-26.329V91.72h26.329Zm-52.658,0H1098.62V91.72h26.329Zm-52.658,0h-26.329V91.72h26.329Zm-52.657,0H993.3V91.72h26.329Zm-52.658,0H940.647V91.72h26.329Zm-52.658,0H887.989V91.72h26.329Zm-52.658,0H835.332V91.72H861.66Zm-52.658,0H782.674V91.72H809Zm-52.658,0H730.016V91.72h26.329Zm-52.658,0H677.359V91.72h26.329Zm-52.658,0H624.7V91.72H651.03Zm-52.658,0H572.043V91.72h26.329Zm-52.658,0H519.386V91.72h26.329Zm-52.658,0H466.728V91.72h26.329Zm-52.658,0H414.07V91.72H440.4Zm-52.658,0H361.413V91.72h26.329Z" transform="translate(-256.345 -91.72)" fill="#fff"/>
    </g>
  </g>
  <path id="Path_2159" data-name="Path 2159" d="M471.856,184.766l26.434,18.509a38.231,38.231,0,1,0,16.087-15.123L482,165.483l32.374-22.664A38.269,38.269,0,1,0,498.3,127.691L471.861,146.2,399.167,95.3c-14.139-9.894-33.817-6.171-43.711,7.962l88.86,62.22-32.411,22.7h55.08Zm39.635-76.117a19.828,19.828,0,1,1,19.825,19.826A19.821,19.821,0,0,1,511.491,108.65Zm0,113.672a19.828,19.828,0,1,1,19.825,19.826A19.825,19.825,0,0,1,511.491,222.322Z" transform="translate(232.261 -39.604)" fill="#0354a6"/>
</svg>
