<svg xmlns="http://www.w3.org/2000/svg" width="2313.51" height="541.503" viewBox="0 0 2313.51 541.503">
  <path id="Subtraction_2" data-name="Subtraction 2" d="M6378.836,668h-7.74c.082-3.515-.447-4.016-1.606-5.112l-.015-.015-.024-.022c-.21-.2-.448-.426-.705-.693a11.313,11.313,0,0,0-8.174-3.258,12.342,12.342,0,0,0-6.853,2.038,10.332,10.332,0,0,0-3.051,2.653,7.358,7.358,0,0,0-.906,4.409H6339.62a9.436,9.436,0,0,1,.091-1.5c.01,0,.021.061.032.182,0,.024,0,.049.006.072v.018l0,.029a.549.549,0,0,0,.007.064.4.4,0,0,0,0-.075,8,8,0,0,0-3.128-6.237,12.5,12.5,0,0,0-15.111.034,8.079,8.079,0,0,0-3.129,6.267.484.484,0,0,0,0,.074s0,0,0-.02v-.047l0-.029,0-.029.006-.076v-.017c.01-.111.02-.184.032-.184a9.577,9.577,0,0,1,.089,1.471h-10.268a7.014,7.014,0,0,1,.093-1.5s.017,0,.033.179l0,.061c0,.018,0,.033,0,.047l0,.026v.013a.158.158,0,0,0,0,.039.328.328,0,0,0,0-.075,8,8,0,0,0-3.128-6.237,12.509,12.509,0,0,0-15.116.034,8.077,8.077,0,0,0-3.128,6.267.484.484,0,0,0,0,.074.46.46,0,0,0,.007-.079v-.011l0-.048c0-.021,0-.042.006-.063.015-.181.026-.2.034-.2a8.936,8.936,0,0,1,.093,1.471h-10.27a9.74,9.74,0,0,1,.093-1.5.523.523,0,0,1,.031.182l0,.028c0,.024,0,.049.007.069v.014a.235.235,0,0,0,.009.071c0-.01,0-.036,0-.075a8,8,0,0,0-3.13-6.237,12.5,12.5,0,0,0-15.112.034,8.078,8.078,0,0,0-3.129,6.267.342.342,0,0,0,0,.074.854.854,0,0,0,.008-.089l0-.022,0-.045,0-.043a.578.578,0,0,1,.033-.2,8.989,8.989,0,0,1,.093,1.471h-10.273a9.317,9.317,0,0,1,.095-1.5c.008,0,.018.022.032.182l0,.045,0,.035v.017a.41.41,0,0,0,.01.085.331.331,0,0,0,0-.075,7.989,7.989,0,0,0-3.131-6.237,12.5,12.5,0,0,0-15.112.034,8.075,8.075,0,0,0-3.129,6.267.4.4,0,0,0,0,.074.848.848,0,0,0,.007-.1c0-.013,0-.028,0-.043v-.01l0-.051c.012-.131.021-.2.034-.2a8.981,8.981,0,0,1,.093,1.471h-10.267a9.217,9.217,0,0,1,.091-1.5c.013,0,.022.071.034.179,0,.039.006.074.008.1s0,.037,0,.049,0,.031.005.032a.513.513,0,0,0,0-.075,8,8,0,0,0-3.13-6.237,12.507,12.507,0,0,0-15.114.034,8.077,8.077,0,0,0-3.128,6.267c0,.056,0,.074,0,.074a.345.345,0,0,0,.007-.069v-.021l0-.026,0-.039,0-.047v-.016a.544.544,0,0,1,.034-.186,8.732,8.732,0,0,1,.092,1.471h-10.267a9.4,9.4,0,0,1,.091-1.5s.015,0,.031.182l.006.069v.029a.508.508,0,0,0,.01.085.5.5,0,0,0,0-.075,8,8,0,0,0-3.131-6.237,12.5,12.5,0,0,0-15.11.034,8.074,8.074,0,0,0-3.129,6.267.725.725,0,0,0,0,.074s0,0,0-.02,0-.019,0-.029l0-.02c0-.014,0-.03,0-.046V666.8c0-.023,0-.048.006-.072a.578.578,0,0,1,.033-.2,6.849,6.849,0,0,1,.09,1.471h-10.267a9.217,9.217,0,0,1,.091-1.5s.016,0,.034.182l0,.061,0,.06v.008a.191.191,0,0,0,.007.054.293.293,0,0,0,0-.075,8,8,0,0,0-3.132-6.237,12.506,12.506,0,0,0-15.114.034,8.078,8.078,0,0,0-3.13,6.267c0,.042,0,.065,0,.072a.329.329,0,0,0,.01-.088v-.011c0-.018,0-.036,0-.056l0-.043c.011-.134.022-.2.034-.2a8.989,8.989,0,0,1,.093,1.471h-10.27a9.367,9.367,0,0,1,.093-1.5c.011,0,.019.058.029.147v.01l0,.018v.008a.465.465,0,0,1,0,.046l0,.043a.623.623,0,0,0,.008.093.346.346,0,0,0,0-.075,8,8,0,0,0-3.13-6.237,12.5,12.5,0,0,0-15.112.034,8.08,8.08,0,0,0-3.13,6.267.38.38,0,0,0,0,.074s0-.007,0-.052v-.005l0-.032,0-.026V666.8c0-.023,0-.044.006-.065.014-.181.026-.2.034-.2a8.964,8.964,0,0,1,.091,1.471h-16.985c.083-3.514-.445-4.015-1.6-5.112l-.021-.019c-.216-.2-.46-.436-.725-.711a11.308,11.308,0,0,0-8.171-3.258,12.345,12.345,0,0,0-6.854,2.038,10.3,10.3,0,0,0-3.053,2.653,7.348,7.348,0,0,0-.906,4.409H6050.62a9.217,9.217,0,0,1,.091-1.5c.006,0,.017.019.03.182l.007.069c.007.079.009.112.011.114a.266.266,0,0,0,0-.075,7.994,7.994,0,0,0-3.13-6.237,12.5,12.5,0,0,0-15.112.034,8.074,8.074,0,0,0-3.13,6.267.515.515,0,0,0,0,.074.724.724,0,0,0,.01-.1c0-.02,0-.04,0-.063l0-.035c.014-.145.023-.2.034-.2a9.286,9.286,0,0,1,.091,1.471h-10.267a7.045,7.045,0,0,1,.091-1.5c.011,0,.021.056.032.182v.012c0,.023.005.046.007.068a.513.513,0,0,0,.013.1.545.545,0,0,0,0-.075,8,8,0,0,0-3.13-6.237,12.506,12.506,0,0,0-15.114.034,8.076,8.076,0,0,0-3.13,6.267.515.515,0,0,0,0,.074.32.32,0,0,0,.006-.055l0-.044,0-.048,0-.053c.02-.2.031-.2.035-.2a9.079,9.079,0,0,1,.092,1.471h-10.267a9.217,9.217,0,0,1,.091-1.5c.013,0,.022.081.03.17l0,.013.006.069v.029l0,.019a.631.631,0,0,0,.008.066.5.5,0,0,0,0-.075,8,8,0,0,0-3.131-6.237,12.5,12.5,0,0,0-15.112.034,8.078,8.078,0,0,0-3.129,6.267c0,.031,0,.051,0,.062v.009a.382.382,0,0,0,.008-.068l0-.02c0-.019,0-.041,0-.063v-.017l0-.027c.017-.182.027-.205.035-.205a8.989,8.989,0,0,1,.093,1.471h-10.271a8.865,8.865,0,0,1,.093-1.5c.008,0,.017.014.034.182a1.4,1.4,0,0,0,.018.183.431.431,0,0,0,0-.075,8,8,0,0,0-3.131-6.237,12.5,12.5,0,0,0-15.113.034,8.07,8.07,0,0,0-3.13,6.267.5.5,0,0,0,0,.074s0-.01,0-.067l0-.016c0-.037,0-.076.009-.117.011-.134.022-.2.034-.2a7.284,7.284,0,0,1,.09,1.471h-10.265a9.367,9.367,0,0,1,.093-1.5c.011,0,.021.071.033.179,0,.012,0,.024,0,.036v.014l0,.018,0,.042v.018a.331.331,0,0,0,.006.058.439.439,0,0,0,0-.075,8,8,0,0,0-3.13-6.237,12.506,12.506,0,0,0-15.114.034,8.074,8.074,0,0,0-3.128,6.267.372.372,0,0,0,0,.074.1.1,0,0,0,0-.019c0-.013,0-.03,0-.054v-.009l.01-.117c.016-.2.029-.2.033-.2a8.988,8.988,0,0,1,.091,1.471h-10.268a9.733,9.733,0,0,1,.091-1.5c.007,0,.017.014.032.182l.006.075v.012a.907.907,0,0,0,.01.095s0-.02,0-.075a8,8,0,0,0-3.13-6.237,12.506,12.506,0,0,0-15.114.034,8.075,8.075,0,0,0-3.128,6.267.484.484,0,0,0,0,.074.678.678,0,0,0,.006-.069v-.021l0-.048c0-.021,0-.042,0-.063.015-.182.027-.2.032-.2a8.989,8.989,0,0,1,.093,1.471h-10.268a9.25,9.25,0,0,1,.091-1.5c.008,0,.017.014.034.182,0,.017,0,.032,0,.047s0,.019,0,.028v.007l.006.054c0,.034,0,.046.008.047s0-.036,0-.075a7.992,7.992,0,0,0-3.132-6.237,12.5,12.5,0,0,0-15.112.034,8.076,8.076,0,0,0-3.13,6.267.341.341,0,0,0,0,.074.41.41,0,0,0,.006-.072v-.011l0-.036v-.006a.637.637,0,0,1,.006-.076c.016-.179.026-.2.034-.2a8.893,8.893,0,0,1,.091,1.471h-10.268a9.549,9.549,0,0,1,.091-1.5c.012,0,.022.061.034.182,0,.009,0,.019,0,.029v.021l0,.043c0,.013,0,.024,0,.033s0,.016,0,.022v.01c0,.017,0,.024,0,.024s0-.037,0-.075a8,8,0,0,0-3.129-6.237,12.5,12.5,0,0,0-15.111.034,8.077,8.077,0,0,0-3.128,6.267c0,.03,0,.051,0,.062v.009a.14.14,0,0,0,0-.034l.005-.061c0-.016,0-.035,0-.053l0-.051c.018-.2.029-.2.034-.2a8.914,8.914,0,0,1,.093,1.471h-13.985c.083-3.515-.446-4.015-1.6-5.111l-.044-.043c-.171-.163-.43-.409-.7-.688a11.314,11.314,0,0,0-8.172-3.258,12.348,12.348,0,0,0-6.855,2.038,10.326,10.326,0,0,0-3.051,2.653,7.352,7.352,0,0,0-.908,4.409h-10.14a9.217,9.217,0,0,1,.091-1.5.572.572,0,0,1,.029.182v.007l0,.02c0,.019,0,.038,0,.055l.006.063v.014a.2.2,0,0,0,0,.024.4.4,0,0,0,0-.075,8,8,0,0,0-3.129-6.237,12.507,12.507,0,0,0-15.114.034,8.08,8.08,0,0,0-3.128,6.267.354.354,0,0,0,0,.074.555.555,0,0,0,.006-.08v-.024c0-.029.006-.062.007-.1a.586.586,0,0,1,.034-.2,8.855,8.855,0,0,1,.091,1.471h-10.267a8.754,8.754,0,0,1,.093-1.5c.01,0,.02.061.032.182l0,.04c0,.014,0,.029,0,.042a.917.917,0,0,0,.011.1.291.291,0,0,0,0-.075,8,8,0,0,0-3.13-6.237,12.506,12.506,0,0,0-15.114.034,8.076,8.076,0,0,0-3.13,6.267.331.331,0,0,0,0,.074.461.461,0,0,0,.006-.069v-.027l0-.032,0-.026c0-.016,0-.031,0-.047.018-.2.029-.2.033-.2a6.8,6.8,0,0,1,.09,1.471h-10.265a10.706,10.706,0,0,1,.091-1.5s.014,0,.032.182c0,.013,0,.026,0,.04v.007c0,.01,0,.019,0,.028l0,.021a.654.654,0,0,0,.008.086.563.563,0,0,0,0-.075,8,8,0,0,0-3.128-6.237,12.506,12.506,0,0,0-15.114.034,8.08,8.08,0,0,0-3.13,6.267.3.3,0,0,0,0,.074.722.722,0,0,0,.009-.1l0-.049,0-.049c.012-.131.021-.2.034-.2a9.286,9.286,0,0,1,.091,1.471h-10.271a8.76,8.76,0,0,1,.095-1.5s.016,0,.033.182l0,.039,0,.053a.629.629,0,0,0,.009.091.545.545,0,0,0,0-.075,8,8,0,0,0-3.129-6.237,12.5,12.5,0,0,0-15.111.034,8.076,8.076,0,0,0-3.131,6.267c0,.054,0,.074,0,.074a.29.29,0,0,0,.007-.061l0-.042c0-.015,0-.031,0-.047v-.018l0-.032a.521.521,0,0,1,.033-.2,7.2,7.2,0,0,1,.091,1.471h-10.268a7.042,7.042,0,0,1,.095-1.5c.011,0,.021.07.033.175l.005.052c.007.117.01.136.011.138a.345.345,0,0,0,0-.075,8,8,0,0,0-3.13-6.237,12.506,12.506,0,0,0-15.114.034,8.079,8.079,0,0,0-3.129,6.267.507.507,0,0,0,0,.074s0-.026.008-.1l0-.048,0-.053v-.016c.018-.186.028-.186.032-.186a8.989,8.989,0,0,1,.093,1.471h-10.267a10.978,10.978,0,0,1,.09-1.5.5.5,0,0,1,.03.182l0,.034c0,.025.005.049.006.07l0,.029v.006c0,.029,0,.042.006.043s0-.035,0-.075a8,8,0,0,0-3.13-6.237,12.5,12.5,0,0,0-15.112.034,8.078,8.078,0,0,0-3.128,6.267.065.065,0,1,0,.009-.011l0-.035c0-.024,0-.052.008-.08a.6.6,0,0,1,.031-.2,8.981,8.981,0,0,1,.093,1.471h-10.27a10.633,10.633,0,0,1,.094-1.5s.015,0,.03.182c0,.022.005.045.007.066l0,.031a.331.331,0,0,0,.01.085.524.524,0,0,0,0-.075,8,8,0,0,0-3.13-6.237,12.506,12.506,0,0,0-15.114.034,8.077,8.077,0,0,0-3.128,6.267.515.515,0,0,0,0,.074,1.161,1.161,0,0,0,.01-.122l0-.078c.016-.151.024-.2.037-.2a8.871,8.871,0,0,1,.093,1.471h-10.27a10.975,10.975,0,0,1,.091-1.5c.011,0,.021.05.034.179l.006.072v.029a.653.653,0,0,0,.009.085.427.427,0,0,0,0-.075,8,8,0,0,0-3.131-6.237,12.5,12.5,0,0,0-15.112.034,8.077,8.077,0,0,0-3.128,6.267.484.484,0,0,0,0,.074s0-.009,0-.029v-.022l0-.026c0-.035,0-.08.008-.124a.619.619,0,0,1,.037-.2,8.988,8.988,0,0,1,.09,1.471H5507.1c.08-3.516-.448-4.017-1.605-5.113l0,0-.006-.006c-.2-.193-.458-.434-.732-.719a11.313,11.313,0,0,0-8.174-3.258,12.332,12.332,0,0,0-6.852,2.038,10.274,10.274,0,0,0-3.053,2.653,7.353,7.353,0,0,0-.91,4.409h-10.14a9.217,9.217,0,0,1,.091-1.5c.011,0,.021.061.032.182v.031l0,.054v.014c.006.062.008.083.009.085a.439.439,0,0,0,0-.075,8,8,0,0,0-3.129-6.237,12.5,12.5,0,0,0-15.113.034,8.08,8.08,0,0,0-3.13,6.267c0,.054,0,.074,0,.074a.384.384,0,0,0,.009-.094c0-.013,0-.028,0-.042v-.034a.281.281,0,0,1,0-.029c.012-.181.024-.2.032-.2a9.286,9.286,0,0,1,.091,1.471h-10.27a9.244,9.244,0,0,1,.095-1.5c.015,0,.026.1.032.182,0,.027.006.056.008.082v.008a.6.6,0,0,0,.011.093.536.536,0,0,0,0-.076,8,8,0,0,0-3.13-6.237,12.508,12.508,0,0,0-15.115.034,8.077,8.077,0,0,0-3.128,6.267.533.533,0,0,0,0,.074.332.332,0,0,0,0-.043l.005-.061.006-.1c.018-.2.029-.2.033-.2a6.674,6.674,0,0,1,.093,1.471h-10.267a9.361,9.361,0,0,1,.091-1.5c.007,0,.017.021.032.182l0,.039,0,.041,0,.025,0,.032a.186.186,0,0,0,.006.046c0-.011,0-.037,0-.075a8,8,0,0,0-3.13-6.237,12.506,12.506,0,0,0-15.114.034,8.074,8.074,0,0,0-3.128,6.267.515.515,0,0,0,0,.074.475.475,0,0,0,.005-.062l0-.026c0-.014,0-.028,0-.044v-.015l0-.054c.018-.2.031-.2.035-.2a8.912,8.912,0,0,1,.091,1.471h-10.27a9.137,9.137,0,0,1,.093-1.5s.015,0,.032.178l.007.074a.749.749,0,0,0,.012.114.643.643,0,0,0,0-.075,8,8,0,0,0-3.129-6.237,12.507,12.507,0,0,0-15.114.034,8.077,8.077,0,0,0-3.129,6.267.533.533,0,0,0,0,.074.222.222,0,0,0,0-.025v-.015l0-.059v-.013c0-.014,0-.028,0-.042l0-.046v-.022c.011-.108.021-.179.033-.179a8.846,8.846,0,0,1,.091,1.471h-10.267a10.975,10.975,0,0,1,.091-1.5c.012,0,.021.066.034.179l.006.072v.029a.61.61,0,0,0,.01.085.563.563,0,0,0,0-.075,7.994,7.994,0,0,0-3.13-6.237,12.5,12.5,0,0,0-15.112.034,8.077,8.077,0,0,0-3.128,6.267.484.484,0,0,0,0,.074s0-.034.006-.082l0-.032c0-.027,0-.056.007-.087a.61.61,0,0,1,.036-.2,8.988,8.988,0,0,1,.09,1.471h-10.267a9.366,9.366,0,0,1,.091-1.5c.014,0,.025.1.032.182l0,.029c0,.008,0,.016,0,.023v.019c0,.005,0,.011,0,.016l0,.051,0,.02a.1.1,0,0,0,0,.026.513.513,0,0,0,0-.075,8,8,0,0,0-3.128-6.237,12.5,12.5,0,0,0-15.112.034,8.079,8.079,0,0,0-3.129,6.267c0,.055,0,.074,0,.074a.5.5,0,0,0,.01-.086v-.026c0-.014,0-.029,0-.044l0-.043c.009-.13.021-.2.032-.2a8.982,8.982,0,0,1,.091,1.471h-10.27a8.934,8.934,0,0,1,.094-1.5c.013,0,.022.071.034.179l.006.072,0,.056c0,.04,0,.056.007.058a.534.534,0,0,0,0-.075,8,8,0,0,0-3.131-6.237,12.507,12.507,0,0,0-15.114.034,8.08,8.08,0,0,0-3.129,6.267.507.507,0,0,0,0,.074.535.535,0,0,0,.008-.091v-.008c0-.018,0-.037,0-.057l0-.044a.6.6,0,0,1,.034-.2,8.989,8.989,0,0,1,.093,1.471h-10.268a9.516,9.516,0,0,1,.093-1.5c.007,0,.016.021.031.182l0,.029v.008c0,.013,0,.026,0,.038v.011l0,.03c0,.046,0,.064.005.066a.425.425,0,0,0,0-.075,8,8,0,0,0-3.128-6.237,12.5,12.5,0,0,0-15.112.034,8.074,8.074,0,0,0-3.128,6.267.354.354,0,0,0,0,.074s0-.026,0-.071l0-.04c0-.016,0-.033,0-.05s0-.026,0-.039a.586.586,0,0,1,.034-.2,8.989,8.989,0,0,1,.093,1.471h-17.15c.083-3.515-.446-4.016-1.6-5.112-.219-.207-.475-.451-.745-.73a11.317,11.317,0,0,0-8.174-3.258,12.33,12.33,0,0,0-6.852,2.038,10.28,10.28,0,0,0-3.053,2.653,7.354,7.354,0,0,0-.909,4.409h-10.14a9.062,9.062,0,0,1,.091-1.5.575.575,0,0,1,.032.182c0,.04.006.08.009.112a.456.456,0,0,0,.006.071.409.409,0,0,0,0-.075,8,8,0,0,0-3.128-6.237,12.5,12.5,0,0,0-15.11.034,8.079,8.079,0,0,0-3.13,6.267c0,.057,0,.074,0,.074a.387.387,0,0,0,.006-.067c0-.017,0-.036,0-.056s0-.027,0-.042l0-.035c.011-.134.021-.2.032-.2a8.955,8.955,0,0,1,.089,1.471H5155.1a8.865,8.865,0,0,1,.093-1.5c.014,0,.026.1.034.182a1.265,1.265,0,0,0,.018.183.407.407,0,0,0,0-.075,7.994,7.994,0,0,0-3.131-6.237,12.5,12.5,0,0,0-15.112.034,8.075,8.075,0,0,0-3.131,6.267c0,.032,0,.052,0,.063v.009a.292.292,0,0,0,.007-.066v-.016c0-.042.005-.081.01-.117.018-.2.029-.2.034-.2a8.989,8.989,0,0,1,.093,1.471h-10.267a9.217,9.217,0,0,1,.091-1.5c.01,0,.021.062.032.179l0,.034,0,.054a.68.68,0,0,0,.008.1.553.553,0,0,0,0-.075,8,8,0,0,0-3.129-6.237,12.507,12.507,0,0,0-15.114.034,8.076,8.076,0,0,0-3.129,6.267c0,.055,0,.074,0,.074a.363.363,0,0,0,.01-.086l0-.024c0-.025,0-.054.007-.082v-.008c.014-.181.025-.2.033-.2a9.511,9.511,0,0,1,.091,1.471H5092.4a8.8,8.8,0,0,1,.093-1.5s.016,0,.032.178l.006.066c.006.08.01.119.011.122a.573.573,0,0,0,0-.075,8,8,0,0,0-3.129-6.237,12.506,12.506,0,0,0-15.114.034,8.076,8.076,0,0,0-3.13,6.267.477.477,0,0,0,0,.074.251.251,0,0,0,.008-.063l0-.059,0-.078a.573.573,0,0,1,.034-.2,9.127,9.127,0,0,1,.091,1.471h-10.267a11.7,11.7,0,0,1,.093-1.5c.006,0,.015.019.032.182l0,.039,0,.066v.022a.233.233,0,0,0,.007.056.563.563,0,0,0,0-.075,7.994,7.994,0,0,0-3.129-6.237,12.5,12.5,0,0,0-15.112.034,8.075,8.075,0,0,0-3.128,6.267.4.4,0,0,0,0,.074.355.355,0,0,0,.006-.064l0-.035,0-.036c0-.021,0-.043,0-.065.011-.134.022-.2.033-.2a8.939,8.939,0,0,1,.093,1.471H5029.7a9.107,9.107,0,0,1,.091-1.5c.011,0,.022.065.032.182,0,.039.006.077.008.109l0,0,0,.023c0,.011,0,.019,0,.026a.12.12,0,0,0,0,.02.4.4,0,0,0,0-.075,8,8,0,0,0-3.128-6.237,12.5,12.5,0,0,0-15.111.034,8.077,8.077,0,0,0-3.13,6.267.354.354,0,0,0,0,.074.6.6,0,0,0,.009-.109l.007-.091c.016-.181.027-.2.033-.2a6.467,6.467,0,0,1,.093,1.471h-10.27a8.794,8.794,0,0,1,.093-1.5c.012,0,.021.066.034.179l0,.027,0,.03c0,.021,0,.041.006.059a.477.477,0,0,0,.006.071.534.534,0,0,0,0-.075,8,8,0,0,0-3.129-6.237,12.5,12.5,0,0,0-15.112.034,8.076,8.076,0,0,0-3.13,6.267c0,.04,0,.063,0,.071a.635.635,0,0,0,.01-.094c0-.03,0-.062.007-.093v-.01c.018-.2.029-.2.034-.2a6.417,6.417,0,0,1,.093,1.471H4967a9.549,9.549,0,0,1,.091-1.5c.015,0,.026.1.034.179l0,.032v.023c0,.012,0,.024,0,.034l.006.062a.291.291,0,0,0,0,.034.527.527,0,0,0,0-.076,8,8,0,0,0-3.128-6.237,12.5,12.5,0,0,0-15.112.034,8.071,8.071,0,0,0-3.131,6.267c0,.03,0,.051,0,.062v.009s.005-.022.01-.078v-.01l0-.05c0-.01,0-.021,0-.032v-.029c.017-.2.029-.2.034-.2a9.135,9.135,0,0,1,.093,1.471h-16.985c.083-3.515-.446-4.016-1.6-5.112l0,0c-.227-.214-.473-.449-.738-.725a11.317,11.317,0,0,0-8.174-3.258,12.333,12.333,0,0,0-6.852,2.038,10.289,10.289,0,0,0-3.053,2.653,7.373,7.373,0,0,0-.908,4.409h-10.142a9.735,9.735,0,0,1,.091-1.5c.007,0,.018.021.031.182l0,.035v.008c0,.013,0,.026,0,.038v.023a.465.465,0,0,0,.007.079.272.272,0,0,0,0-.075,7.994,7.994,0,0,0-3.129-6.237,12.5,12.5,0,0,0-15.112.034,8.079,8.079,0,0,0-3.128,6.267.39.39,0,0,0,0,.074.274.274,0,0,0,.005-.057l0-.033,0-.048c0-.021,0-.042,0-.063.01-.134.021-.2.032-.2a9.054,9.054,0,0,1,.091,1.471H4866.1a9.208,9.208,0,0,1,.093-1.5c.007,0,.017.014.034.182l.005.069,0,.054a.285.285,0,0,0,.007.06.545.545,0,0,0,0-.075,8,8,0,0,0-3.129-6.237,12.506,12.506,0,0,0-15.114.034,8.081,8.081,0,0,0-3.128,6.267.354.354,0,0,0,0,.074l.006-.079c0-.035,0-.079.008-.122.019-.2.031-.2.035-.2a9.2,9.2,0,0,1,.091,1.471H4834.75a9.217,9.217,0,0,1,.091-1.5c.011,0,.021.06.032.178,0,.04.008.077.01.107a.779.779,0,0,0,.009.08.517.517,0,0,0,0-.075,7.994,7.994,0,0,0-3.129-6.237,12.5,12.5,0,0,0-15.112.034,8.077,8.077,0,0,0-3.13,6.267.354.354,0,0,0,0,.074.492.492,0,0,0,.007-.074c0-.04.006-.083.011-.126v-.009c.013-.133.023-.192.033-.192a8.319,8.319,0,0,1,.091,1.471H4803.4a8.631,8.631,0,0,1,.095-1.5.459.459,0,0,1,.033.182l0,.05,0,.049v.013a.323.323,0,0,0,.008.071.545.545,0,0,0,0-.075,8,8,0,0,0-3.128-6.237,12.506,12.506,0,0,0-15.114.034,8.078,8.078,0,0,0-3.131,6.267.421.421,0,0,0,0,.074s0-.01.008-.088c0-.011,0-.023,0-.035v-.021c0-.018,0-.037.005-.056.011-.134.022-.2.033-.2a8.833,8.833,0,0,1,.09,1.471h-10.267a9.168,9.168,0,0,1,.093-1.5c.011,0,.022.061.032.182l0,.048v.014c0,.014,0,.028,0,.041l0,.043a.3.3,0,0,0,0,.037.517.517,0,0,0,0-.075,8,8,0,0,0-3.128-6.237,12.5,12.5,0,0,0-15.112.034,8.076,8.076,0,0,0-3.13,6.267.341.341,0,0,0,0,.074.313.313,0,0,0,.008-.071v-.008l0-.056,0-.066c.017-.2.029-.2.034-.2a9.135,9.135,0,0,1,.093,1.471H4740.7a11.005,11.005,0,0,1,.093-1.5c.011,0,.021.061.03.182l.006.069,0,.029v.014a.277.277,0,0,0,.008.071c0-.007,0-.026,0-.075a8,8,0,0,0-3.13-6.237,12.5,12.5,0,0,0-15.112.034,8.08,8.08,0,0,0-3.13,6.267.249.249,0,0,0,0,.074s0-.02.006-.074l0-.049c0-.012,0-.024,0-.036s0-.019,0-.028v-.013a.573.573,0,0,1,.034-.2,8.917,8.917,0,0,1,.091,1.471h-10.27a9.244,9.244,0,0,1,.095-1.5s.016,0,.032.182c0,.013,0,.027,0,.041l0,.018c0,.014,0,.026,0,.039l0,.026v.016c0,.031,0,.043.006.043a.563.563,0,0,0,0-.075,7.994,7.994,0,0,0-3.13-6.237,12.506,12.506,0,0,0-15.114.034,8.076,8.076,0,0,0-3.13,6.267.331.331,0,0,0,0,.074.585.585,0,0,0,.009-.088l0-.047,0-.066c.016-.2.029-.2.034-.2a8.981,8.981,0,0,1,.093,1.471H4678a9.645,9.645,0,0,1,.091-1.5c.008,0,.018.021.032.182l.006.069,0,.029a.582.582,0,0,0,.009.085c0-.011,0-.035,0-.075a8,8,0,0,0-3.13-6.237,12.5,12.5,0,0,0-15.111.034,8.075,8.075,0,0,0-3.129,6.267.048.048,0,1,0,.009-.006v-.011c0-.043.007-.077.008-.109.019-.2.03-.2.035-.2a8.992,8.992,0,0,1,.091,1.471H4639.1c.085-3.512-.444-4.013-1.6-5.11l-.016-.015c-.2-.193-.458-.433-.73-.717a11.312,11.312,0,0,0-8.173-3.258,12.334,12.334,0,0,0-6.853,2.038,10.306,10.306,0,0,0-3.053,2.653,7.356,7.356,0,0,0-.906,4.409h-10.143a11.831,11.831,0,0,1,.093-1.5.463.463,0,0,1,.03.182l.006.069,0,.029v.027a.251.251,0,0,0,.007.058c0-.007,0-.026,0-.075a8,8,0,0,0-3.129-6.237,12.5,12.5,0,0,0-15.113.034,8.076,8.076,0,0,0-3.13,6.267.4.4,0,0,0,0,.074.356.356,0,0,0,.007-.077v-.008l.01-.115c.017-.186.026-.2.034-.2a9.324,9.324,0,0,1,.089,1.471h-10.266a9.549,9.549,0,0,1,.091-1.5c.009,0,.019.022.032.182,0,.027.006.056.008.082.007.074.01.1.011.1a.289.289,0,0,0,0-.075,7.994,7.994,0,0,0-3.13-6.237,12.508,12.508,0,0,0-15.115.034,8.078,8.078,0,0,0-3.128,6.267.377.377,0,0,0,0,.074.435.435,0,0,0,.006-.069v-.021a.67.67,0,0,0,.006-.067l0-.043a.578.578,0,0,1,.033-.2,8.988,8.988,0,0,1,.091,1.471h-10.267a9.5,9.5,0,0,1,.091-1.5s.016,0,.032.182l.006.069,0,.029,0,.05a.211.211,0,0,0,0,.035.423.423,0,0,0,0-.075,8,8,0,0,0-3.13-6.237,12.5,12.5,0,0,0-15.112.034,8.075,8.075,0,0,0-3.129,6.267.484.484,0,0,0,0,.074.477.477,0,0,0,.01-.093l0-.029.006-.078c.011-.134.022-.2.034-.2a8.981,8.981,0,0,1,.093,1.471h-10.271a8.606,8.606,0,0,1,.093-1.5s.016,0,.034.182l0,.064v.016a.405.405,0,0,0,.012.1.545.545,0,0,0,0-.075,8,8,0,0,0-3.13-6.237,12.5,12.5,0,0,0-15.113.034,8.08,8.08,0,0,0-3.129,6.267c0,.056,0,.074,0,.074s0-.013.005-.042,0-.036,0-.062,0-.062,0-.1l0-.008c.018-.194.03-.194.034-.194a6.591,6.591,0,0,1,.091,1.471h-10.265a10.207,10.207,0,0,1,.091-1.5.582.582,0,0,1,.034.182v.022a.071.071,0,0,0,0,.014.224.224,0,0,1,0,.024v.006h0v.018a.629.629,0,0,0,.01.1.5.5,0,0,0,0-.075,8,8,0,0,0-3.129-6.237,12.507,12.507,0,0,0-15.114.034,8.075,8.075,0,0,0-3.129,6.267c0,.042,0,.065,0,.072s0-.009,0-.024,0-.021,0-.034l0-.029c0-.032,0-.069.008-.107.018-.205.031-.205.035-.205a8.855,8.855,0,0,1,.091,1.471h-10.268a9.679,9.679,0,0,1,.091-1.5c.008,0,.018.022.032.182l0,.061v.008l0,.037a.6.6,0,0,0,.009.076.535.535,0,0,0,0-.075,8,8,0,0,0-3.129-6.237,12.5,12.5,0,0,0-15.113.034,8.074,8.074,0,0,0-3.13,6.267.484.484,0,0,0,0,.074.439.439,0,0,0,.008-.08v-.009c0-.029,0-.069.009-.111.015-.151.023-.2.034-.2a9.286,9.286,0,0,1,.091,1.471h-10.27a9.349,9.349,0,0,1,.093-1.5c.011,0,.021.061.033.182l0,.026c0,.021,0,.042.005.061.006.061.01.093.011.1a.569.569,0,0,0,0-.075,8,8,0,0,0-3.131-6.237,12.6,12.6,0,0,0-14.193-.64V635.5h1976.5V668Zm-2307.5,0H4068V129h3.333Z" transform="translate(-4067.5 -128.5)" fill="#00c2ac" stroke="rgba(0,0,0,0)" stroke-miterlimit="10" stroke-width="1"/>
</svg>
