<?xml version="1.0" standalone="no"?>
<!DOCTYPE svg PUBLIC "-//W3C//DTD SVG 20010904//EN"
 "http://www.w3.org/TR/2001/REC-SVG-20010904/DTD/svg10.dtd">
<svg version="1.0" xmlns="http://www.w3.org/2000/svg"
 width="150.000000pt" height="150.000000pt" viewBox="0 0 150.000000 150.000000"
 preserveAspectRatio="xMidYMid meet">
<metadata>
Created by potrace 1.11, written by Peter Selinger 2001-2013
</metadata>
<g transform="translate(0.000000,150.000000) scale(0.100000,-0.100000)"
fill="#000000" stroke="none">
<path d="M320 1122 c0 -1 36 -51 80 -110 62 -82 80 -114 79 -137 0 -16 -1 -63
0 -102 l1 -73 55 0 55 0 0 104 0 104 80 100 c44 55 80 104 80 109 0 5 -30 9
-66 8 l-66 -1 -39 -63 -40 -62 -42 63 -42 63 -68 0 c-37 0 -67 -1 -67 -3z"/>
<path d="M171 1017 c-30 -56 -78 -147 -107 -203 -30 -56 -54 -104 -54 -108 0
-3 30 -6 68 -6 l67 0 40 74 41 75 38 -75 39 -74 69 0 c37 0 68 3 68 6 0 7
-200 397 -209 406 -4 5 -31 -38 -60 -95z"/>
<path d="M778 1102 c-60 -36 -71 -122 -26 -188 28 -41 37 -45 116 -50 34 -2
67 -6 73 -9 25 -16 -12 -25 -107 -25 -57 0 -104 -3 -105 -7 0 -5 -2 -31 -3
-60 -3 -62 -9 -59 136 -57 120 1 158 16 191 72 22 37 25 120 5 151 -20 33 -73
53 -146 55 -43 1 -67 6 -70 15 -3 9 13 12 64 11 38 -1 88 -1 112 -1 l42 1 0
55 0 55 -127 0 c-103 0 -133 -4 -155 -18z"/>
<path d="M1238 1058 c-20 -35 -70 -130 -113 -211 l-77 -148 74 3 73 3 35 67
c19 38 37 68 40 68 3 0 21 -31 41 -68 l35 -67 73 -3 72 -3 -107 208 c-59 114
-108 209 -109 211 -2 2 -18 -25 -37 -60z"/>
<path d="M524 672 l-521 -2 0 -83 c1 -45 4 -84 8 -87 6 -4 1429 -5 1475 -1 6
1 10 34 11 86 l0 84 -226 3 c-124 2 -461 2 -747 0z m-64 -53 c7 -12 7 -20 0
-24 -6 -4 -8 -21 -4 -42 5 -28 4 -35 -7 -31 -8 3 -15 15 -17 27 -4 22 -26 24
-28 3 -1 -7 -2 -16 -3 -22 0 -5 -5 -10 -11 -10 -15 0 -13 117 2 122 23 8 59
-4 68 -23z m339 -12 c21 -57 -34 -105 -84 -73 -39 25 -30 89 14 104 32 11 59
-1 70 -31z m649 -1 c3 -22 -2 -28 -26 -37 -17 -6 -29 -17 -28 -26 0 -9 -5 -18
-11 -20 -10 -3 -13 12 -13 55 0 50 3 61 18 64 31 7 57 -8 60 -36z m-1280 16
c3 -9 -4 -11 -21 -8 -16 3 -31 -2 -41 -13 -14 -15 -14 -19 0 -39 18 -26 37
-28 55 -6 11 13 10 15 -6 12 -10 -1 -20 3 -22 10 -3 8 6 12 25 12 39 0 44 -7
26 -41 -31 -62 -125 -22 -108 45 3 14 14 31 23 36 21 13 63 8 69 -8z m892 -26
c0 -25 5 -48 11 -52 18 -11 34 15 34 53 0 20 6 38 13 40 16 6 17 -88 0 -105
-17 -17 -53 -15 -68 3 -12 14 -21 83 -13 98 12 20 23 2 23 -37z"/>
<path d="M403 608 c2 -7 10 -13 17 -13 7 0 15 6 18 13 2 7 -5 12 -18 12 -13 0
-20 -5 -17 -12z"/>
<path d="M727 613 c-14 -14 -7 -61 10 -67 20 -8 46 21 38 42 -3 8 -5 18 -5 23
0 10 -33 12 -43 2z"/>
<path d="M1395 603 c2 -10 4 -20 4 -22 2 -7 31 22 31 30 0 5 -9 9 -19 9 -13 0
-18 -6 -16 -17z"/>
<path d="M11 418 c5 -18 9 -34 9 -36 0 -2 4 -1 9 2 5 4 3 19 -6 36 -19 39 -24
38 -12 -2z"/>
<path d="M37 435 c-9 -23 -9 -25 6 -22 6 1 11 -6 11 -15 -1 -10 2 -18 6 -18 9
0 32 61 26 67 -2 3 -7 -6 -11 -18 l-7 -22 -13 22 c-10 20 -13 21 -18 6z"/>
<path d="M121 428 c-4 -12 -5 -31 -2 -43 5 -20 5 -20 9 0 2 11 9 23 16 27 8 6
7 8 -1 8 -7 0 -13 5 -13 11 0 5 5 7 10 4 6 -3 10 -1 10 4 0 20 -20 11 -29 -11z"/>
<path d="M197 443 c-10 -17 -4 -62 9 -67 16 -6 31 13 31 39 0 27 -29 46 -40
28z m28 -13 c3 -5 -1 -10 -10 -10 -9 0 -13 5 -10 10 3 6 8 10 10 10 2 0 7 -4
10 -10z m5 -30 c0 -5 -7 -10 -16 -10 -8 0 -12 5 -9 10 3 6 10 10 16 10 5 0 9
-4 9 -10z"/>
<path d="M325 440 c-3 -5 -4 -14 0 -19 3 -5 1 -13 -5 -16 -17 -10 7 -34 28
-28 10 2 19 13 19 24 2 18 0 18 -17 -3 -17 -20 -19 -21 -20 -5 0 10 5 15 10
12 6 -3 10 -1 10 4 0 6 -4 11 -10 11 -5 0 -10 4 -10 10 0 5 7 6 17 3 11 -4 14
-3 9 5 -9 15 -23 15 -31 2z"/>
<path d="M468 443 c-23 -6 -23 -46 -1 -64 15 -13 15 -12 5 8 -17 31 -15 38 11
51 23 11 16 13 -15 5z"/>
<path d="M544 438 c-5 -8 -2 -9 9 -5 9 3 19 2 22 -3 4 -6 -3 -10 -14 -10 -15
0 -21 -6 -21 -22 0 -21 0 -21 15 -2 13 17 14 17 15 2 0 -30 15 -20 15 10 1 36
-25 56 -41 30z"/>
<path d="M631 419 c-13 -38 -6 -53 8 -18 9 23 12 23 15 -3 0 -6 7 -13 14 -16
13 -4 7 21 -13 51 -12 17 -14 15 -24 -14z"/>
<path d="M710 415 l0 -35 26 22 c23 21 24 23 8 35 -27 20 -34 16 -34 -22z m25
16 c3 -5 1 -12 -5 -16 -5 -3 -10 1 -10 9 0 18 6 21 15 7z"/>
<path d="M883 415 c0 -22 2 -30 4 -17 2 12 2 30 0 40 -3 9 -5 -1 -4 -23z"/>
<path d="M933 433 c-3 -10 -8 -21 -10 -25 -4 -8 25 -38 38 -38 5 0 9 5 9 10 0
6 -6 9 -12 8 -7 -2 -14 7 -16 20 -2 16 3 25 20 31 l23 10 -23 0 c-13 1 -25 -6
-29 -16z"/>
<path d="M1062 433 c-9 -18 -2 -63 9 -66 11 -3 49 35 49 48 0 7 -7 18 -15 25
-9 8 -15 9 -15 2 0 -6 4 -13 10 -17 13 -8 1 -35 -17 -35 -11 0 -14 8 -11 30 5
34 2 38 -10 13z"/>
<path d="M1150 415 c0 -19 2 -35 4 -35 2 0 11 -3 20 -6 9 -3 16 -1 16 5 0 6
-5 10 -11 9 -19 -5 -20 50 -1 55 12 3 10 5 -5 6 -20 1 -23 -4 -23 -34z"/>
<path d="M1230 440 c-12 -8 -12 -11 3 -28 19 -20 23 -37 7 -27 -5 3 -10 1 -10
-4 0 -15 15 -14 29 3 9 10 8 16 -4 26 -9 7 -14 19 -11 27 6 15 6 16 -14 3z"/>
<path d="M1303 415 c0 -22 2 -30 4 -17 2 12 2 30 0 40 -3 9 -5 -1 -4 -23z"/>
<path d="M1356 434 c-26 -25 8 -74 39 -57 14 8 13 11 0 28 -16 20 -16 19 -10
-2 5 -18 3 -22 -9 -17 -24 9 -19 43 7 54 16 6 17 9 5 9 -9 1 -24 -6 -32 -15z"/>
<path d="M1438 438 c-3 -7 -1 -24 3 -38 7 -25 7 -25 8 -2 1 13 6 20 11 17 15
-9 12 11 -4 24 -10 9 -15 8 -18 -1z"/>
<path d="M1477 423 c-3 -15 -1 -32 4 -37 6 -7 9 -7 10 0 0 5 2 16 4 25 1 9 -1
22 -5 29 -5 7 -9 2 -13 -17z"/>
<path d="M788 435 c-2 -6 -2 -21 3 -35 4 -16 7 -19 8 -7 1 22 31 23 31 0 0 -9
3 -13 7 -10 9 10 10 57 1 57 -4 0 -8 -4 -8 -10 0 -14 -28 -12 -32 2 -3 7 -7 8
-10 3z"/>
<path d="M480 410 c0 -6 4 -10 10 -10 5 0 6 -7 3 -17 -4 -11 -3 -14 5 -9 17
10 15 33 -3 40 -8 3 -15 1 -15 -4z"/>
</g>
</svg>
